<svg width="90" height="90" viewBox="0 0 90 90" fill="none" xmlns="http://www.w3.org/2000/svg">
<g clip-path="url(#clip0_1182_6470)">
<path d="M30.7295 59.0877C28.4879 59.0877 26.9258 60.7514 26.9258 63.1835C26.9258 65.6156 28.4625 67.2476 30.7295 67.2476C32.9965 67.2476 34.5967 65.6156 34.5967 63.1835C34.5967 60.7514 33.0282 59.0877 30.7295 59.0877Z" fill="#F8F2EB"/>
<path d="M45.0032 45.0032V0L0 45.0032V90.0064H45.0032L90.0064 45.0032H45.0032ZM18.6884 78.5952H13.7289V59.564H10.2491V54.9284H18.6884V78.5952ZM35.9733 72.2261L31.3378 78.5889H25.4195L30.8234 71.3307C30.5059 71.3942 30.182 71.426 29.8645 71.426C25.0004 71.426 21.6792 68.0667 21.6792 63.2089C21.6792 58.0272 25.483 54.5093 30.7281 54.5093C35.9733 54.5093 39.904 58.2812 39.904 63.2407C39.904 66.149 38.8499 68.2953 35.967 72.2261H35.9733Z" fill="#F8F2EB"/>
<path d="M55.7157 9.50658C55.7157 9.22717 55.6077 9.00492 55.3855 8.84617C55.1632 8.68742 54.8012 8.57311 54.2996 8.50326L52.9788 8.30006C51.9501 8.14766 51.2071 7.8873 50.7562 7.5317C50.3054 7.17609 50.0768 6.67443 50.0768 6.02672C50.0768 5.33456 50.3943 4.80115 51.0229 4.4138C51.6516 4.02644 52.5216 3.83594 53.6265 3.83594C54.6425 3.83594 55.4299 4.00104 55.9824 4.3376C56.5412 4.67415 56.9031 5.20121 57.0809 5.93147L55.5887 6.12197C55.4363 5.73462 55.2013 5.45521 54.8965 5.29011C54.5917 5.12501 54.1535 5.04246 53.5884 5.04246C52.9597 5.04246 52.4771 5.12501 52.1342 5.28376C51.7913 5.44886 51.6198 5.67747 51.6198 5.98227C51.6198 6.26168 51.7278 6.47758 51.9437 6.62363C52.1596 6.76969 52.5406 6.88399 53.0804 6.96654L54.6171 7.20149C55.5379 7.33484 56.211 7.58885 56.6364 7.9508C57.0619 8.31911 57.2714 8.82712 57.2714 9.47483C57.2714 10.2051 56.9666 10.7766 56.3507 11.1703C55.7347 11.5704 54.8584 11.7672 53.7154 11.7672C51.3277 11.7672 50.045 10.9354 49.8672 9.27163H51.442C51.5246 9.70978 51.7532 10.0336 52.1279 10.2432C52.5025 10.4527 53.0296 10.5607 53.7154 10.5607C54.3631 10.5607 54.8584 10.4718 55.195 10.2876C55.5315 10.1035 55.703 9.84313 55.703 9.50658H55.7157Z" fill="#F8F2EB"/>
<path d="M55.5946 9.50658C55.5946 9.22717 55.4866 9.00492 55.2644 8.84617C55.0421 8.68742 54.6802 8.57311 54.1785 8.50326L52.8577 8.30006C51.829 8.14766 51.086 7.8873 50.6351 7.5317C50.1843 7.17609 49.9557 6.67443 49.9557 6.02672C49.9557 5.33456 50.2732 4.80115 50.9018 4.4138C51.5305 4.02644 52.4005 3.83594 53.5054 3.83594C54.5214 3.83594 55.3088 4.00104 55.8613 4.3376C56.4201 4.67415 56.8265 5.21391 56.9979 5.93782L55.5057 6.12832C55.3533 5.74097 55.0802 5.45521 54.7754 5.29011C54.4706 5.12501 54.0324 5.04246 53.4673 5.04246C52.8386 5.04246 52.356 5.12501 52.0131 5.28376C51.6702 5.44886 51.4988 5.67747 51.4988 5.98227C51.4988 6.26168 51.6067 6.47758 51.8226 6.62363C52.0385 6.76969 52.4195 6.88399 52.9593 6.96654L54.496 7.20149C55.4168 7.33484 56.0899 7.58885 56.5153 7.9508C56.9408 8.31911 57.1503 8.82712 57.1503 9.47483C57.1503 10.2051 56.8455 10.7766 56.2296 11.1703C55.6136 11.5704 54.7373 11.7672 53.5943 11.7672C51.2067 11.7672 49.9239 10.9354 49.7461 9.27163H51.321C51.4035 9.70978 51.6321 10.0336 52.0068 10.2432C52.3814 10.4527 52.9085 10.5607 53.5943 10.5607C54.242 10.5607 54.7373 10.4718 55.0739 10.2876C55.4104 10.1035 55.5819 9.84313 55.5819 9.50658H55.5946Z" fill="#F8F2EB"/>
<path d="M67.076 4.02643H68.6381V11.5767H67.076V4.02643Z" fill="#F8F2EB"/>
<path d="M66.9549 4.02643H68.517V11.5767H66.9549V4.02643Z" fill="#F8F2EB"/>
<path d="M82.5011 6.66807L84.6348 4.02643H86.4001L83.479 7.58249L86.7557 11.5767H84.8761L82.463 8.5858L80.0817 11.5767H78.3164L81.4978 7.65234L78.545 4.02643H80.4246L82.4884 6.66807H82.5011Z" fill="#F8F2EB"/>
<path d="M82.38 6.66807L84.5137 4.02643H86.279L83.3579 7.58249L86.6346 11.5767H84.755L82.3419 8.5858L79.9606 11.5767H78.1953L81.3767 7.65234L78.4239 4.02643H80.3035L82.3673 6.66807H82.38Z" fill="#F8F2EB"/>
<path d="M52.8073 19.6794H49.8164V18.3713H57.354V19.6794H54.3694V25.9216H52.8073V19.6794Z" fill="#F8F2EB"/>
<path d="M52.6862 19.6794H49.6953V18.3713H57.2329V19.6794H54.2483V25.9216H52.6862V19.6794Z" fill="#F8F2EB"/>
<path d="M67.0769 22.8611L63.8828 18.3652H65.6354L67.8897 21.6355L70.1313 18.3652H71.8458L68.639 22.8611V25.9155H67.0769V22.8611Z" fill="#F8F2EB"/>
<path d="M66.9558 22.8611L63.7617 18.3652H65.5143L67.7686 21.6355L70.0102 18.3652H71.7247L68.5179 22.8611V25.9155H66.9558V22.8611Z" fill="#F8F2EB"/>
<path d="M52.8008 32.7031H54.3629V40.2534H52.8008V32.7031Z" fill="#F8F2EB"/>
<path d="M52.6797 32.7031H54.2418V40.2534H52.6797V32.7031Z" fill="#F8F2EB"/>
<path d="M70.339 32.7031H72.0408L68.7515 40.2534H66.9544L63.6777 32.7031H65.424L67.8879 38.7738L70.339 32.7031Z" fill="#F8F2EB"/>
<path d="M70.2179 32.7031H71.9197L68.6304 40.2534H66.8333L63.5566 32.7031H65.3029L67.7668 38.7738L70.2179 32.7031Z" fill="#F8F2EB"/>
<path d="M79.2935 32.7031H85.5547V33.9287H80.8365V35.7702H85.3197V36.9958H80.8365V39.0278H85.7833L85.5928 40.2534H79.2871V32.7031H79.2935Z" fill="#F8F2EB"/>
<path d="M79.1724 32.7031H85.4336V33.9287H80.7154V35.7702H85.1986V36.9958H80.7154V39.0278H85.6622L85.4717 40.2534H79.166V32.7031H79.1724Z" fill="#F8F2EB"/>
<path d="M79.5605 18.3652H85.5233V19.6226H81.1227V21.6101H85.2883V22.8675H81.1227V25.9155H79.5605V18.3652Z" fill="#F8F2EB"/>
<path d="M79.4395 18.3652H85.4022V19.6226H81.0016V21.6101H85.1672V22.8675H81.0016V25.9155H79.4395V18.3652Z" fill="#F8F2EB"/>
</g>
<defs>
<clipPath id="clip0_1182_6470">
<rect width="90" height="90" fill="white"/>
</clipPath>
</defs>
</svg>
