<svg width="70" height="70" viewBox="0 0 70 70" fill="none" xmlns="http://www.w3.org/2000/svg">
<g clip-path="url(#clip0_1061_23805)">
<path d="M23.8998 45.9571C22.1564 45.9571 20.9414 47.2511 20.9414 49.1427C20.9414 51.0344 22.1366 52.3037 23.8998 52.3037C25.6631 52.3037 26.9077 51.0344 26.9077 49.1427C26.9077 47.2511 25.6878 45.9571 23.8998 45.9571Z" fill="#151515"/>
<path d="M35.0025 35.0025V0L0 35.0025V70.0049H35.0025L70.0049 35.0025H35.0025ZM14.5354 61.1296H10.678V46.3275H7.97149V42.7221H14.5354V61.1296ZM27.9793 56.1758L24.3738 61.1247H19.7707L23.9738 55.4794C23.7268 55.5288 23.4749 55.5535 23.228 55.5535C19.4447 55.5535 16.8616 52.9408 16.8616 49.1625C16.8616 45.1323 19.8201 42.3961 23.8997 42.3961C27.9793 42.3961 31.0365 45.3298 31.0365 49.1872C31.0365 51.4492 30.2166 53.1186 27.9743 56.1758H27.9793Z" fill="#151515"/>
<path d="M43.3339 7.39402C43.3339 7.1767 43.25 7.00384 43.0771 6.88037C42.9043 6.75689 42.6227 6.66799 42.2326 6.61366L41.2053 6.45562C40.4051 6.33708 39.8273 6.13458 39.4766 5.858C39.1259 5.58142 38.9481 5.19124 38.9481 4.68746C38.9481 4.14912 39.1951 3.73424 39.684 3.43297C40.173 3.13169 40.8496 2.98352 41.709 2.98352C42.4993 2.98352 43.1117 3.11193 43.5414 3.3737C43.976 3.63546 44.2575 4.0454 44.3958 4.61338L43.2352 4.76155C43.1166 4.46027 42.9339 4.24296 42.6968 4.11454C42.4597 3.98613 42.119 3.92192 41.6794 3.92192C41.1904 3.92192 40.8151 3.98613 40.5484 4.10961C40.2817 4.23802 40.1483 4.41582 40.1483 4.65289C40.1483 4.87021 40.2323 5.03813 40.4002 5.15173C40.5681 5.26532 40.8645 5.35423 41.2843 5.41843L42.4795 5.60117C43.1957 5.70489 43.7192 5.90245 44.0501 6.18397C44.381 6.47043 44.544 6.86555 44.544 7.36932C44.544 7.93731 44.3069 8.38181 43.8278 8.68803C43.3488 8.99918 42.6672 9.15229 41.7782 9.15229C39.9211 9.15229 38.9234 8.50529 38.7852 7.21128H40.01C40.0742 7.55207 40.252 7.80395 40.5434 7.96694C40.8348 8.12993 41.2448 8.21389 41.7782 8.21389C42.2819 8.21389 42.6672 8.14474 42.929 8.00151C43.1907 7.85828 43.3241 7.65579 43.3241 7.39402H43.3339Z" fill="#151515"/>
<path d="M43.2402 7.39402C43.2402 7.1767 43.1562 7.00384 42.9834 6.88037C42.8105 6.75689 42.529 6.66799 42.1388 6.61366L41.1115 6.45562C40.3114 6.33708 39.7335 6.13458 39.3829 5.858C39.0322 5.58142 38.8544 5.19124 38.8544 4.68746C38.8544 4.14912 39.1013 3.73424 39.5903 3.43297C40.0793 3.13169 40.7559 2.98352 41.6153 2.98352C42.4055 2.98352 43.0179 3.11193 43.4476 3.3737C43.8823 3.63546 44.1984 4.05528 44.3317 4.61832L43.1711 4.76649C43.0525 4.46521 42.8401 4.24296 42.6031 4.11454C42.366 3.98613 42.0252 3.92192 41.5856 3.92192C41.0967 3.92192 40.7213 3.98613 40.4546 4.10961C40.1879 4.23802 40.0546 4.41582 40.0546 4.65289C40.0546 4.87021 40.1385 5.03813 40.3065 5.15173C40.4744 5.26532 40.7707 5.35423 41.1905 5.41843L42.3858 5.60117C43.1019 5.70489 43.6254 5.90245 43.9563 6.18397C44.2873 6.47043 44.4502 6.86555 44.4502 7.36932C44.4502 7.93731 44.2132 8.38181 43.7341 8.68803C43.255 8.99918 42.5734 9.15229 41.6844 9.15229C39.8274 9.15229 38.8297 8.50529 38.6914 7.21128H39.9163C39.9805 7.55207 40.1583 7.80395 40.4497 7.96694C40.7411 8.12993 41.151 8.21389 41.6844 8.21389C42.1882 8.21389 42.5734 8.14474 42.8352 8.00151C43.097 7.85828 43.2303 7.65579 43.2303 7.39402H43.2402Z" fill="#151515"/>
<path d="M52.1719 3.13239H53.3869V9.00482H52.1719V3.13239Z" fill="#151515"/>
<path d="M52.0781 3.13239H53.2931V9.00482H52.0781V3.13239Z" fill="#151515"/>
<path d="M64.1688 5.187L65.8283 3.13239H67.2014L64.9294 5.89821L67.4779 9.00482H66.016L64.1392 6.67856L62.2871 9.00482H60.9141L63.3885 5.95254L61.0919 3.13239H62.5538L64.159 5.187H64.1688Z" fill="#151515"/>
<path d="M64.0751 5.187L65.7346 3.13239H67.1076L64.8357 5.89821L67.3842 9.00482H65.9223L64.0455 6.67856L62.1933 9.00482H60.8203L63.2947 5.95254L60.9981 3.13239H62.4601L64.0652 5.187H64.0751Z" fill="#151515"/>
<path d="M41.0724 15.3062H38.7461V14.2888H44.6087V15.3062H42.2873V20.1613H41.0724V15.3062Z" fill="#151515"/>
<path d="M40.9786 15.3062H38.6523V14.2888H44.5149V15.3062H42.1936V20.1613H40.9786V15.3062Z" fill="#151515"/>
<path d="M52.1718 17.7809L49.6875 14.2841H51.0507L52.804 16.8277L54.5474 14.2841H55.881L53.3868 17.7809V20.1565H52.1718V17.7809Z" fill="#151515"/>
<path d="M52.0781 17.7809L49.5938 14.2841H50.9569L52.7102 16.8277L54.4537 14.2841H55.7872L53.293 17.7809V20.1565H52.0781V17.7809Z" fill="#151515"/>
<path d="M41.0664 25.4358H42.2814V31.3082H41.0664V25.4358Z" fill="#151515"/>
<path d="M40.9727 25.4358H42.1876V31.3082H40.9727V25.4358Z" fill="#151515"/>
<path d="M54.7081 25.4358H56.0317L53.4733 31.3082H52.0756L49.5271 25.4358H50.8853L52.8016 30.1574L54.7081 25.4358Z" fill="#151515"/>
<path d="M54.6143 25.4358H55.938L53.3796 31.3082H51.9819L49.4333 25.4358H50.7916L52.7079 30.1574L54.6143 25.4358Z" fill="#151515"/>
<path d="M61.6727 25.4358H66.5425V26.389H62.8728V27.8213H66.3597V28.7745H62.8728V30.355H66.7203L66.5721 31.3082H61.6677V25.4358H61.6727Z" fill="#151515"/>
<path d="M61.5789 25.4358H66.4487V26.389H62.7791V27.8213H66.266V28.7745H62.7791V30.355H66.6265L66.4784 31.3082H61.574V25.4358H61.5789Z" fill="#151515"/>
<path d="M61.8828 14.2841H66.5205V15.262H63.0978V16.8079H66.3378V17.7858H63.0978V20.1565H61.8828V14.2841Z" fill="#151515"/>
<path d="M61.7891 14.2841H66.4268V15.262H63.004V16.8079H66.244V17.7858H63.004V20.1565H61.7891V14.2841Z" fill="#151515"/>
</g>
<defs>
<clipPath id="clip0_1061_23805">
<rect width="70" height="70" fill="white"/>
</clipPath>
</defs>
</svg>
