<svg width="157" height="64" viewBox="0 0 157 64" fill="none" xmlns="http://www.w3.org/2000/svg">
<path d="M7.69922 1.65897C11.4319 1.64927 15.1647 1.65735 18.8974 1.65493C18.8974 2.75398 18.8966 3.85222 18.8974 4.95046C17.5834 4.94965 16.2686 4.94965 14.9546 4.95046C14.9675 8.4262 14.9699 11.9028 14.9748 15.3793C13.8717 15.3801 12.7694 15.3793 11.6663 15.3793C11.6695 11.9044 11.6485 8.43024 11.6558 4.95531C10.3377 4.95612 9.01969 4.95531 7.70164 4.95531C7.70083 3.85626 7.70488 2.75802 7.69922 1.65897Z" fill="#151515"/>
<path d="M19.391 1.65507C20.6816 1.65507 21.9721 1.65507 23.2627 1.65587C23.2676 3.24061 23.2554 4.82615 23.253 6.41169C24.626 6.41088 25.999 6.41169 27.372 6.41088C27.3494 4.82615 27.3664 3.24061 27.3615 1.65507C28.644 1.65749 29.9273 1.65022 31.2098 1.65911L31.23 1.68416C31.2365 6.24845 31.23 10.8144 31.2332 15.3786C29.9451 15.3803 28.6578 15.3794 27.3696 15.3794C27.3736 13.5175 27.3631 11.6556 27.3559 9.79369C25.9909 9.80177 24.6268 9.79611 23.2627 9.79692C23.2619 11.658 23.2619 13.5191 23.2627 15.3803C21.9721 15.3786 20.6816 15.3803 19.391 15.3794C19.3902 10.8047 19.391 6.22986 19.391 1.65507Z" fill="#151515"/>
<path d="M31.707 1.66062C34.8935 1.6493 38.0807 1.65496 41.2671 1.65738C41.2623 2.64329 41.2663 3.6284 41.2647 4.6135C39.2945 4.61431 37.3235 4.61512 35.3533 4.6135C35.3589 5.32223 35.3347 6.03015 35.3396 6.73887C37.1481 6.73968 38.9567 6.73806 40.7645 6.73887C40.7693 7.67468 40.7629 8.61049 40.7685 9.5463C38.96 9.5471 37.1522 9.54953 35.3436 9.54549C35.3396 10.4126 35.3355 11.2813 35.3452 12.1485L35.3711 12.1727C37.389 12.18 39.4077 12.1743 41.4255 12.1759C41.4247 13.2435 41.4247 14.311 41.4255 15.3793C38.1906 15.3793 34.9565 15.3793 31.7216 15.3793C31.7183 10.807 31.7337 6.23379 31.707 1.66062Z" fill="#151515"/>
<path d="M85.1832 6.71148C86.717 6.71714 88.2508 6.69936 89.7846 6.70421C90.2097 6.69613 90.6469 6.69532 91.0501 6.85129C91.7387 7.10746 92.3787 7.59719 92.6729 8.28652C93.064 9.18192 93.0438 10.2495 92.6252 11.1319C92.3431 11.721 91.8235 12.2051 91.1859 12.3732C90.1184 12.6746 88.9967 12.7126 87.8936 12.7183C87.8839 13.5927 87.9033 14.4671 87.9049 15.3414C86.9917 15.3431 86.0786 15.3455 85.1654 15.3406C85.1654 12.7708 85.1654 10.201 85.1654 7.63113C85.1638 7.32404 85.1597 7.01776 85.1832 6.71148ZM87.9696 8.94514C87.9704 9.4882 87.9688 10.0313 87.9704 10.5743C88.4641 10.5735 88.9587 10.5727 89.4533 10.5751C89.9091 10.6285 90.2275 10.1484 90.2509 9.73791C90.3042 9.29991 89.8824 8.89827 89.4517 8.93302C88.9579 8.93867 88.4633 8.92494 87.9696 8.94514Z" fill="#151515"/>
<path d="M46.8455 6.7397C48.5256 6.73808 50.2057 6.7397 51.8858 6.73889C52.6656 6.73889 53.4042 7.12598 53.9376 7.67955C54.5598 8.38343 54.7166 9.38873 54.5792 10.2946C54.4362 11.1925 53.8729 12.0903 52.9695 12.3739C51.8712 12.7142 50.7059 12.7408 49.5648 12.7586C49.5875 13.6322 49.5681 14.5058 49.5753 15.3794C48.6646 15.3794 47.7546 15.3786 46.8439 15.3802C46.8447 12.5 46.8423 9.61986 46.8455 6.7397ZM49.6513 10.6025C50.2049 10.5896 50.7592 10.6219 51.3128 10.6058C51.666 10.525 51.8858 10.154 51.9246 9.81219C51.9997 9.37338 51.5932 8.94507 51.156 8.97174C50.655 8.97336 50.1531 8.97336 49.6521 8.97255C49.6505 9.51561 49.6513 10.0587 49.6513 10.6025Z" fill="#151515"/>
<path d="M56.3839 6.73968C57.2898 6.73806 58.1965 6.73887 59.1025 6.73887C59.1049 7.70054 59.1033 8.66302 59.1033 9.62468C59.9752 9.62307 60.848 9.62388 61.7208 9.62468C61.7216 8.66302 61.7192 7.70135 61.7216 6.73968C62.6582 6.74695 63.5964 6.72271 64.5322 6.7518C64.5266 9.60125 64.5298 12.4515 64.5306 15.3018C63.594 15.3026 62.6574 15.3018 61.7208 15.3018C61.7208 14.2076 61.7208 13.1142 61.7208 12.02C60.8456 12.02 59.9704 12.0208 59.096 12.02C59.0903 13.1142 59.1057 14.2084 59.1033 15.3026C58.1965 15.301 57.2898 15.3026 56.3831 15.3018C56.3839 12.4475 56.3815 9.59317 56.3839 6.73968Z" fill="#151515"/>
<path d="M66.6501 6.73972C67.5867 6.74456 68.5241 6.72759 69.4607 6.7486C69.4567 9.59967 69.4583 12.4507 69.4599 15.301C68.5225 15.3026 67.5859 15.3026 66.6484 15.301C66.6501 12.4475 66.6476 9.5932 66.6501 6.73972Z" fill="#151515"/>
<path d="M71.7472 6.73972C72.6838 6.74214 73.6204 6.73083 74.5579 6.74537C74.5554 8.85539 74.5579 10.9646 74.5562 13.0746C75.8436 13.077 77.1309 13.0722 78.4183 13.0762C78.4142 13.8181 78.4175 14.5599 78.4167 15.3018C76.1927 15.3018 73.9696 15.3034 71.7464 15.301C71.7472 12.4475 71.7448 9.5932 71.7472 6.73972Z" fill="#151515"/>
<path d="M94.3789 6.75186C95.7018 6.74378 97.0247 6.76156 98.3476 6.73812C98.9941 6.75914 99.6665 6.66297 100.286 6.89894C100.976 7.16077 101.609 7.66019 101.896 8.35518C102.315 9.3419 102.249 10.5395 101.675 11.4519C101.373 11.9368 100.884 12.2932 100.331 12.4338C99.2802 12.7118 98.1836 12.7546 97.1031 12.7587C97.1087 13.6322 97.1128 14.5058 97.1112 15.3794C96.1996 15.3794 95.2897 15.3802 94.3789 15.3786C94.3789 12.5033 94.3789 9.62798 94.3789 6.75186ZM97.1871 8.9839C97.1863 9.52696 97.1855 10.07 97.1871 10.6131C97.6825 10.6115 98.1771 10.6115 98.6733 10.6139C99.1097 10.6648 99.4159 10.2147 99.4564 9.82516C99.5331 9.40332 99.1711 8.98956 98.7525 8.97421C98.2304 8.97016 97.7084 8.97097 97.1871 8.9839Z" fill="#151515"/>
<path d="M103.871 6.75014C104.798 6.72267 105.727 6.75014 106.654 6.7356C106.71 7.43543 106.662 8.14092 106.679 8.84318C106.674 10.996 106.688 13.1489 106.671 15.3009C105.738 15.3033 104.805 15.3017 103.874 15.3017C103.874 12.4507 103.878 9.6004 103.871 6.75014Z" fill="#151515"/>
<path d="M109.072 6.739C109.947 6.73738 110.822 6.74223 111.698 6.73657C112.717 8.18958 113.569 9.75573 114.655 11.1619C114.663 9.68784 114.655 8.21382 114.659 6.739C115.541 6.74465 116.423 6.72768 117.305 6.74789C117.301 9.59895 117.303 12.45 117.304 15.3019C116.407 15.3019 115.51 15.3035 114.613 15.3011C114.103 14.5398 113.584 13.7858 113.084 13.0173C112.633 12.3231 112.268 11.5643 111.707 10.9461C111.709 12.3975 111.707 13.8497 111.708 15.3019C110.829 15.3027 109.95 15.3019 109.07 15.3019C109.072 12.4476 109.069 9.59329 109.072 6.739Z" fill="#151515"/>
<path d="M119.673 6.73974C121.976 6.73893 124.278 6.73893 126.581 6.73974C126.584 7.42988 126.58 8.12083 126.583 8.81097C125.157 8.8142 123.733 8.81097 122.308 8.81258C122.307 9.19159 122.309 9.5706 122.307 9.94961C123.514 9.95204 124.723 9.94961 125.931 9.95042C125.931 10.6115 125.93 11.2725 125.931 11.9328C124.723 11.9328 123.516 11.9344 122.309 11.9319C122.306 12.3667 122.309 12.8007 122.307 13.2346C123.787 13.2395 125.266 13.2274 126.746 13.2411C126.737 13.928 126.744 14.6149 126.743 15.3018C124.386 15.3018 122.029 15.3026 119.673 15.3018C119.673 12.4475 119.671 9.59323 119.673 6.73974Z" fill="#151515"/>
<path d="M80.2977 6.78906C81.2335 6.78906 82.1685 6.78906 83.1043 6.78906C83.1051 9.64013 83.1043 12.4912 83.1051 15.3423C82.1693 15.3431 81.2327 15.3431 80.2969 15.3423C80.2977 12.4912 80.2969 9.64013 80.2977 6.78906Z" fill="#151515"/>
<path d="M16.1686 18.6208C18.1978 18.1028 20.2989 17.8902 22.3904 17.9258C25.6366 17.9799 28.9297 18.4034 31.9537 19.6374C33.8504 20.4261 35.6792 21.6084 36.7847 23.3839C37.6647 24.853 38.1771 26.5073 38.5836 28.1615C38.7912 29.048 38.9917 29.9386 39.1193 30.8413C35.2856 30.8421 31.4519 30.838 27.6189 30.8429C27.1753 29.9378 26.9296 28.9308 26.3275 28.1066C25.6455 27.1182 24.5125 26.5453 23.3609 26.3061C21.9887 26.0192 20.4945 26.0135 19.1975 26.6002C18.3748 26.9614 17.8463 27.7486 17.5182 28.5543C17.2474 29.2444 17.102 30.0162 17.2846 30.7467C17.4454 31.3859 17.9077 31.9023 18.4257 32.287C19.2451 32.8963 20.206 33.2745 21.1628 33.6099C24.7889 34.8455 28.6064 35.4055 32.2277 36.6581C33.5651 37.126 34.8807 37.6909 36.0606 38.4845C36.9665 39.0938 37.7859 39.8518 38.3896 40.7674C39.1711 41.9295 39.6414 43.2799 39.8677 44.6561C40.1845 46.6053 40.0471 48.6127 39.5751 50.5256C39.2034 51.9753 38.6434 53.3944 37.79 54.6316C36.4364 56.6043 34.471 58.1074 32.2947 59.0715C30.4587 59.8966 28.4868 60.3814 26.5005 60.6716C24.4963 60.9447 22.472 61.0902 20.4492 61.0538C17.2353 60.9924 13.96 60.4808 11.0629 59.027C8.8486 57.9256 6.93335 56.1848 5.75349 53.9997C4.54049 51.7741 4.0241 49.2115 4.04349 46.6902C7.95967 46.6999 11.8758 46.6797 15.792 46.7007C15.8979 48.068 16.0991 49.4928 16.8474 50.6743C17.5044 51.7183 18.6051 52.423 19.7817 52.7414C21.4941 53.2109 23.352 53.1132 25.02 52.5143C26.1611 52.0917 27.2609 51.3595 27.8226 50.2476C28.2953 49.3231 28.3091 48.2062 27.9745 47.2357C27.5817 46.1762 26.6653 45.4182 25.7069 44.8792C24.0826 43.9838 22.2554 43.5385 20.4371 43.2403C19.0884 43.0439 17.738 42.8451 16.4054 42.5518C14.3527 42.1033 12.3106 41.4948 10.4689 40.4644C8.83972 39.5601 7.3964 38.2631 6.4913 36.6202C5.36478 34.599 5.04557 32.2143 5.21851 29.9313C5.43589 27.2588 6.5406 24.6203 8.48333 22.7438C10.5877 20.6742 13.3313 19.3513 16.1686 18.6208Z" fill="#151515"/>
<path d="M40.3528 28.7869C40.3569 25.796 40.344 22.806 40.3593 19.8159C52.8529 19.824 65.3473 19.8159 77.8418 19.82C77.8401 22.8092 77.8418 25.7985 77.8401 28.7877C73.5951 28.7861 69.3492 28.7869 65.1033 28.7869C64.8924 39.442 65.0863 50.1004 65.0112 60.7571C63.7586 60.7604 62.506 60.7458 61.2542 60.7693C58.5833 60.7636 55.9133 60.7531 53.2424 60.7539C53.24 52.6646 53.1899 44.5761 53.1834 36.4867C53.1576 35.8119 53.1608 35.1372 53.177 34.4632C53.1438 32.5714 53.1624 30.6787 53.1527 28.7869C48.8858 28.7861 44.6189 28.7869 40.3528 28.7869Z" fill="#151515"/>
<path d="M83.3349 19.8208C88.0245 19.8152 92.714 19.8232 97.4036 19.8168C102.741 33.4555 108.171 47.0587 113.356 60.7564C111.26 60.7847 109.164 60.7499 107.069 60.7564C105.132 60.7564 103.195 60.7572 101.259 60.7564C100.217 57.9344 99.272 55.0793 98.3766 52.208C93.0648 52.2193 87.7538 52.2072 82.4419 52.2137C81.2863 54.9993 80.5259 57.9255 79.4891 60.754C75.4565 60.796 71.4232 60.72 67.3906 60.7548C72.5036 47.0328 77.9318 33.4304 83.3349 19.8208ZM90.3301 27.6653C88.5683 33.0999 86.7549 38.5192 85.0772 43.9813C88.6071 43.9821 92.137 43.9813 95.6677 43.9821C93.8616 38.5515 92.2114 33.0692 90.3301 27.6653Z" fill="#151515"/>
<path d="M114.658 19.8112C121.048 19.8048 127.437 19.8347 133.826 19.8112C136.067 19.8234 138.312 19.8347 140.54 20.0909C142.105 20.28 143.679 20.5709 145.129 21.2133C146.446 21.7911 147.563 22.7641 148.426 23.9052C149.169 24.8612 149.624 26.0136 149.845 27.1991C150.13 28.6869 150.143 30.2134 150.024 31.7198C149.919 33.2213 149.34 34.6807 148.392 35.8485C146.84 37.775 144.478 38.9242 142.063 39.3032C143.583 40.0111 145.211 40.5251 146.596 41.494C147.542 42.1438 148.3 43.0747 148.689 44.1592C149.254 45.7157 149.431 47.3764 149.603 49.0128C149.821 51.1455 149.843 53.3088 150.335 55.4051C150.737 57.25 151.414 59.019 152.146 60.7549C147.678 60.7597 143.21 60.7557 138.742 60.7565C137.711 57.2274 137.309 53.5537 137 49.9018C136.927 48.953 136.946 47.993 136.741 47.0596C136.576 46.3032 136.088 45.6292 135.424 45.2316C134.561 44.7063 133.535 44.5552 132.545 44.4712C130.642 44.3532 128.735 44.4784 126.832 44.4146C126.78 49.8614 126.943 55.3114 126.753 60.7573C122.699 60.7589 118.644 60.7484 114.59 60.7686C114.618 47.1162 114.637 33.4637 114.658 19.8112ZM126.847 27.4787C126.816 28.1907 126.842 28.9043 126.834 29.617C126.843 31.807 126.817 33.9979 126.847 36.1871C128.793 36.0715 130.748 36.1814 132.695 36.04C133.965 35.9471 135.262 35.7782 136.425 35.2254C136.926 34.9733 137.408 34.6452 137.752 34.1959C137.954 33.6649 138.203 33.1501 138.361 32.6022C138.737 31.2979 138.448 29.718 137.347 28.8412C136.109 27.8529 134.464 27.646 132.937 27.5078C130.91 27.3834 128.876 27.4537 126.847 27.4787Z" fill="#151515"/>
</svg>
