<svg width="305" height="24" viewBox="0 0 305 24" fill="none" xmlns="http://www.w3.org/2000/svg">
<path d="M261.412 0.406006L256.135 15.2728H256.084L251.061 0.406006H243.044V0.608963C244.211 0.710443 245.378 1.42081 245.378 3.55189L245.226 18.6217C245.124 21.0064 244.211 23.3405 242.08 23.6449V23.8479H249.336V23.6449C247.002 23.442 245.835 21.7168 245.835 18.8754L245.886 2.63856H245.987L253.395 23.7464H253.649L261.361 2.28339H261.412C261.311 4.82039 261.26 9.69142 261.26 11.3658V19.8902C261.26 22.6301 259.788 23.4927 258.875 23.6449V23.8479H269.023V23.6449C268.211 23.4927 266.79 22.6301 266.79 19.8902V4.05929C266.79 1.31933 268.211 0.761186 269.023 0.659706V0.456749H261.412V0.406006Z" fill="#151515"/>
<path d="M239.441 4.00855C239.441 1.26859 241.014 0.659703 241.978 0.608963V0.406006H231.525V0.608963C232.439 0.761183 233.91 1.26859 233.91 4.00855V19.8394C233.91 22.5794 232.388 23.442 231.525 23.5942V23.7971H241.673V23.5942C240.862 23.4927 239.492 22.5794 239.492 19.8394V4.00855H239.441Z" fill="#151515"/>
<path d="M277.699 23.3912V11.8732H279.83C282.671 11.8732 283.838 12.7866 284.6 14.7654H284.802V8.57514H284.6C283.838 10.4525 282.57 11.4673 279.83 11.4673H277.699V0.811935H279.881C282.519 0.811935 286.172 1.21784 287.542 5.17556H287.796L287.695 2.13116V0.406006H270.088V0.608963C270.849 0.761183 272.117 1.11636 272.117 3.90706V19.9916C272.117 22.7316 270.798 23.442 270.088 23.5942V23.7971H288.202V22.072L288.304 18.7739H288.05C286.325 22.7316 283.991 23.3912 280.642 23.3912H277.699Z" fill="#151515"/>
<path d="M210.822 0.406006V2.13116L210.721 5.2263H210.924C212.446 1.77599 215.186 0.811935 217.165 0.811935H217.977V19.8902C217.977 22.6301 216.353 23.4927 215.389 23.6449V23.8479H226.044V23.6449C224.979 23.4927 223.558 22.6301 223.558 19.8902V0.811935H224.37C226.349 0.811935 229.089 1.77599 230.611 5.2263H230.814L230.712 2.13116V0.406006H210.822Z" fill="#151515"/>
<path d="M295.202 23.6956C291.904 23.6956 290.077 20.8034 289.215 18.7738H288.961L289.012 21.1586V23.3911C290.534 23.7463 292.766 24 295.253 24C299.921 24 304.386 21.8182 304.386 16.8457C304.386 13.4968 302.559 11.1628 298.145 9.48837C295.151 8.37209 293.325 7.00212 293.325 4.36364C293.325 1.82664 295.405 0.304443 297.739 0.304443C300.733 0.304443 302.306 2.48625 303.27 5.17547H303.473L303.422 2.84144V0.558143C302.001 0.355183 300.124 0 297.79 0C292.107 0 288.91 2.73996 288.91 6.79915C288.91 10.9091 291.701 12.5328 294.745 13.8013C297.993 15.1205 299.718 16.5412 299.718 19.3319C299.819 22.2749 297.993 23.6956 295.202 23.6956Z" fill="#151515"/>
<path d="M42.2658 4.00855C42.2658 1.26859 43.7372 0.710443 44.6506 0.608963V0.406006H34.2996V0.608963C35.2129 0.761183 36.6844 1.26859 36.6844 4.00855V11.4673H28.8197V4.00855C28.8197 1.26859 30.2911 0.710443 31.2045 0.608963V0.406006H20.8535V0.608963C21.7668 0.761183 23.2383 1.26859 23.2383 4.00855V19.8394C23.2383 22.5794 21.7161 23.442 20.8535 23.5942V23.7971H31.2045V23.5942C30.2911 23.442 28.8197 22.5794 28.8197 19.8394V11.924H36.7351V19.8394C36.7351 22.5794 35.2129 23.442 34.3503 23.5942V23.7971H44.7013V23.5942C43.788 23.442 42.3165 22.5794 42.3165 19.8394V4.00855H42.2658Z" fill="#151515"/>
<path d="M53.3278 23.3912V11.8732H55.4589C58.3003 11.8732 59.4673 12.7866 60.2284 14.7654H60.4314V8.57514H60.2284C59.4673 10.4525 58.1988 11.4673 55.4589 11.4673H53.3278V0.811935H55.5096C58.1481 0.811935 61.8014 1.21784 63.1713 5.17556H63.425L63.3236 2.13116V0.406006H45.7168V0.608963C46.4779 0.761183 47.7464 1.11636 47.7464 3.90706V19.9916C47.7464 22.7316 46.4272 23.442 45.7168 23.5942V23.7971H63.831V22.072L63.9324 18.7739H63.6787C61.9536 22.7316 59.6196 23.3912 56.2707 23.3912H53.3278Z" fill="#151515"/>
<path d="M0.101479 0.406006V2.13116L0 5.2263H0.20296C1.72516 1.77599 4.46512 0.811935 6.44398 0.811935H7.25582V19.8902C7.25582 22.6301 5.63214 23.4927 4.66808 23.6449V23.8479H15.3235V23.6449C14.2579 23.4927 12.8372 22.6301 12.8372 19.8902V0.811935H13.649C15.6279 0.811935 18.3679 1.77599 19.8901 5.2263H20.093L19.9915 2.13116V0.406006H0.101479Z" fill="#151515"/>
<path d="M80.2703 23.6956C76.9722 23.6956 75.1455 20.8034 74.283 18.7738H74.0293L74.08 21.1586V23.3911C75.6022 23.7463 77.8348 24 80.321 24C84.9891 24 89.4542 21.8182 89.4542 16.8457C89.4542 13.4968 87.6276 11.1628 83.2132 9.48837C80.2195 8.37209 78.3929 7.00212 78.3929 4.36364C78.3929 1.82664 80.4732 0.304443 82.8073 0.304443C85.8009 0.304443 87.3739 2.48625 88.3379 5.17547H88.5409L88.4901 2.84144V0.558143C87.0694 0.355183 85.192 0 82.858 0C77.1751 0 73.9785 2.73996 73.9785 6.79915C73.9785 10.9091 76.7692 12.5328 79.8136 13.8013C83.061 15.1205 84.7861 16.5412 84.7861 19.3319C84.8876 22.2749 83.061 23.6956 80.2703 23.6956Z" fill="#151515"/>
<path d="M193.927 23.6956C190.628 23.6956 188.802 20.8034 187.939 18.7738H187.686L187.736 21.1586V23.3911C189.258 23.7463 191.491 24 193.977 24C198.645 24 203.11 21.8182 203.11 16.8457C203.11 13.4968 201.284 11.1628 196.869 9.48837C193.876 8.37209 192.049 7.00212 192.049 4.36364C192.049 1.82664 194.129 0.304443 196.464 0.304443C199.457 0.304443 201.03 2.48625 201.994 5.17547H202.197L202.146 2.84144V0.558143C200.726 0.355183 198.848 0 196.514 0C190.831 0 187.635 2.73996 187.635 6.79915C187.635 10.9091 190.425 12.5328 193.47 13.8013C196.717 15.1205 198.442 16.5412 198.442 19.3319C198.544 22.2749 196.768 23.6956 193.927 23.6956Z" fill="#151515"/>
<path d="M89.3515 0.406006V2.13116L89.25 5.2263H89.453C90.9752 1.77599 93.7151 0.811935 95.694 0.811935H96.5058V19.8902C96.5058 22.6301 94.8821 23.4927 93.9181 23.6449V23.8479H104.472V23.6449C103.406 23.4927 102.036 22.6301 102.036 19.8902V0.811935H102.848C104.827 0.811935 107.567 1.77599 109.089 5.2263H109.292L109.191 2.13116V0.406006H89.3515Z" fill="#151515"/>
<path d="M167.289 0.406006V2.13116L167.188 5.2263H167.39C168.913 1.77599 171.653 0.811935 173.631 0.811935H174.443V19.8902C174.443 22.6301 172.82 23.4927 171.856 23.6449V23.8479H182.511V23.6449C181.445 23.4927 180.025 22.6301 180.025 19.8902V0.811935H180.837C182.815 0.811935 185.555 1.77599 187.078 5.2263H187.281L187.179 2.13116V0.406006H167.289Z" fill="#151515"/>
<path d="M164.195 4.00855C164.195 1.26859 165.666 0.710443 166.579 0.608963V0.406006H156.229V0.608963C157.142 0.761183 158.613 1.26859 158.613 4.00855V19.8394C158.613 22.5794 157.091 23.442 156.229 23.5942V23.7971H166.579V23.5942C165.666 23.442 164.195 22.5794 164.195 19.8394V4.00855Z" fill="#151515"/>
<path d="M153.235 20.6005L146.892 0.406006H140.093V0.608963C140.955 0.862662 141.412 1.87747 141.412 2.33413C141.412 2.79079 141.361 3.04448 141.108 3.65336L136.034 17.2009C134.41 21.6153 132.989 23.442 131.822 23.5942V23.7971H138.266V23.5942C136.947 23.5434 135.932 22.3257 135.932 20.7527C135.932 19.535 136.287 18.4187 136.846 16.7443L137.353 15.3236H145.624L145.979 16.3384C146.588 18.2665 147.247 20.3976 147.247 21.4631C147.247 22.2749 146.943 23.4927 145.827 23.5942V23.7971H155.822V23.5942C154.807 23.5434 153.843 22.4272 153.235 20.6005ZM137.556 14.8669L141.818 3.09523H141.869L145.471 14.8669H137.556Z" fill="#151515"/>
<path d="M131.516 23.7971V23.5942C130.45 23.442 130.044 21.4631 129.232 18.9261C127.913 14.6639 126.594 11.8732 122.23 11.6195L122.383 11.4673C126.137 11.3151 129.182 9.53921 129.182 5.83519C129.182 1.31933 124.361 0.406006 119.237 0.406006H110.002V0.608963C110.915 0.761183 112.387 1.26859 112.387 4.00855V19.8394C112.387 22.5794 110.865 23.442 110.002 23.5942V23.7971H119.947V23.5942C119.034 23.442 117.917 22.4779 117.917 19.6872V12.1269H118.374C121.013 12.1269 122.535 15.2728 123.803 19.9916C124.615 22.9853 124.666 23.4927 124.666 23.6957V23.8479H131.516V23.7971ZM118.78 11.721C118.526 11.721 118.222 11.721 117.968 11.6703V0.811935C118.425 0.761195 118.881 0.710449 119.186 0.710449C122.281 0.710449 123.955 2.38487 123.955 5.83519C123.955 9.69143 121.977 11.721 118.78 11.721Z" fill="#151515"/>
</svg>
