<svg width="103" height="90" viewBox="0 0 103 90" fill="none" xmlns="http://www.w3.org/2000/svg">
<g clip-path="url(#clip0_1187_1946)">
<path d="M1.35479 9.92821C1.35479 7.98256 1.77302 6.2733 2.60038 4.77315C3.42773 3.28209 4.62785 2.10924 6.20074 1.2637C7.77363 0.418161 9.65563 -0.00915527 11.8377 -0.00915527C17.0109 -0.00915527 20.1658 2.13652 21.2932 6.42786L17.4291 6.90063C16.9836 5.60959 16.329 4.68223 15.4471 4.11854C14.5652 3.55484 13.356 3.27299 11.8195 3.27299C9.84656 3.27299 8.28277 3.86396 7.14629 5.03681C6.00981 6.20966 5.43703 7.83709 5.43703 9.91912C5.43703 12.0011 6.00981 13.6286 7.15538 14.8014C8.30095 15.9743 9.89202 16.5652 11.9195 16.5652C13.5833 16.5652 14.8743 16.2652 15.8108 15.6561C16.7473 15.0469 17.3655 14.1014 17.6655 12.8103H21.6114C21.3114 15.0742 20.3113 16.8107 18.6202 18.029C16.92 19.2473 14.6743 19.8565 11.8649 19.8565C9.63745 19.8565 7.74635 19.4383 6.18256 18.6109C4.61876 17.7836 3.41864 16.6198 2.59128 15.1287C1.76393 13.6377 1.3457 11.9011 1.3457 9.92821H1.35479Z" fill="#151515"/>
<path d="M38.7773 9.92821C38.7773 7.90073 39.2228 6.13692 40.1138 4.65495C41.0048 3.17298 42.2686 2.02741 43.9051 1.20915C45.5417 0.399977 47.4691 -0.00915527 49.6966 -0.00915527C51.9241 -0.00915527 53.8425 0.390885 55.4699 1.20006C57.0974 2.00014 58.352 3.14571 59.234 4.62768C60.1159 6.10964 60.5614 7.87346 60.5614 9.92821C60.5614 11.983 60.1159 13.7195 59.2249 15.2015C58.3339 16.6834 57.0701 17.829 55.4336 18.6473C53.797 19.4564 51.8696 19.8656 49.6421 19.8656C47.4146 19.8656 45.4962 19.4655 43.8688 18.6564C42.2413 17.8563 40.9867 16.7016 40.1047 15.2106C39.2228 13.7195 38.7773 11.9557 38.7773 9.92821ZM42.8505 9.92821C42.8505 12.0284 43.4505 13.665 44.6507 14.8287C45.8508 15.9925 47.5237 16.5743 49.6603 16.5743C51.7968 16.5743 53.4606 15.9834 54.6608 14.8105C55.8609 13.6377 56.4609 12.0102 56.4609 9.92821C56.4609 7.84618 55.8609 6.19147 54.6699 5.02772C53.4788 3.86396 51.8059 3.28209 49.6512 3.28209C47.4964 3.28209 45.8417 3.86396 44.6416 5.02772C43.4414 6.19147 42.8414 7.828 42.8414 9.92821H42.8505Z" fill="#151515"/>
<path d="M78.9277 0.472778H83.51L90.4744 15.2288L97.4114 0.472778H101.885V19.3838H98.2024V5.85514L91.9018 19.3929H88.856L82.5554 5.99152V19.3929H78.9277V0.472778Z" fill="#151515"/>
<path d="M0 35.7854H4.58228L11.5466 50.5414L18.4837 35.7854H22.9569V54.6964H19.2747V41.1587L12.974 54.6964H9.92828L3.62764 41.295V54.6964H0V35.7854Z" fill="#151515"/>
<path d="M40.4941 46.8047V35.7854H44.4127V47.0411C44.4127 48.7049 44.84 49.9232 45.6856 50.7051C46.5311 51.487 47.8585 51.887 49.6587 51.887C51.4589 51.887 52.7863 51.4961 53.6318 50.7051C54.4774 49.9232 54.9047 48.6958 54.9047 47.0411V35.7854H58.8233V46.8047C58.8233 49.6868 58.0505 51.7961 56.4958 53.1508C54.9411 54.5055 52.6681 55.1783 49.6587 55.1783C46.6493 55.1783 44.3582 54.5055 42.8126 53.1508C41.2669 51.7961 40.4941 49.6868 40.4941 46.8047Z" fill="#151515"/>
<path d="M81.0996 35.7854H84.7L95.9557 49.3413V35.7854H99.7197V54.6964H96.1193L84.8636 41.1132V54.6964H81.0996V35.7854Z" fill="#151515"/>
<path d="M9.51953 71.089H13.4381V90H9.51953V71.089Z" fill="#151515"/>
<path d="M47.7143 74.3711H40.2227V71.089H59.1064V74.3711H51.642V90H47.7234V74.3711H47.7143Z" fill="#151515"/>
<path d="M88.4364 82.3447L80.4355 71.089H84.8269L90.4729 79.2716L96.0917 71.089H100.383L92.3549 82.3447V90H88.4364V82.3447Z" fill="#151515"/>
<path d="M1.66534 9.92821C1.66534 7.98256 2.08357 6.2733 2.91092 4.77315C3.73828 3.28209 4.9384 2.10924 6.51129 1.2637C8.08417 0.418161 9.96618 -0.00915527 12.1482 -0.00915527C17.3215 -0.00915527 20.4763 2.13652 21.6037 6.42786L17.7397 6.90063C17.2942 5.60959 16.6396 4.68223 15.7577 4.11854C14.8758 3.55484 13.6666 3.27299 12.13 3.27299C10.1571 3.27299 8.59331 3.86396 7.45684 5.03681C6.32036 6.20966 5.74757 7.83709 5.74757 9.91912C5.74757 12.0011 6.32036 13.6286 7.46593 14.8014C8.6115 15.9743 10.2026 16.5652 12.23 16.5652C13.8938 16.5652 15.1849 16.2652 16.1213 15.6561C17.0578 15.0469 17.6761 14.1014 17.9761 12.8103H21.9219C21.6219 15.0742 20.6218 16.8107 18.9307 18.029C17.2305 19.2473 14.9849 19.8565 12.1755 19.8565C9.948 19.8565 8.0569 19.4383 6.4931 18.6109C4.92931 17.7836 3.72919 16.6198 2.90183 15.1287C2.07447 13.6377 1.65625 11.9011 1.65625 9.92821H1.66534Z" fill="#151515"/>
<path d="M39.0859 9.92821C39.0859 7.90073 39.5314 6.13692 40.4224 4.65495C41.3134 3.17298 42.5772 2.02741 44.2137 1.20915C45.8503 0.399977 47.7777 -0.00915527 50.0052 -0.00915527C52.2327 -0.00915527 54.1511 0.390885 55.7785 1.20006C57.406 2.00014 58.6606 3.14571 59.5425 4.62768C60.4245 6.10964 60.87 7.87346 60.87 9.92821C60.87 11.983 60.4245 13.7195 59.5335 15.2015C58.6425 16.6834 57.3787 17.829 55.7422 18.6473C54.1056 19.4564 52.1782 19.8656 49.9507 19.8656C47.7232 19.8656 45.8048 19.4655 44.1774 18.6564C42.5499 17.8563 41.2953 16.7016 40.4133 15.2106C39.5314 13.7195 39.0859 11.9557 39.0859 9.92821ZM43.1591 9.92821C43.1591 12.0284 43.7591 13.665 44.9593 14.8287C46.1594 15.9925 47.8323 16.5743 49.9689 16.5743C52.1054 16.5743 53.7692 15.9834 54.9694 14.8105C56.1695 13.6377 56.7695 12.0102 56.7695 9.92821C56.7695 7.84618 56.1695 6.19147 54.9785 5.02772C53.7874 3.86396 52.1145 3.28209 49.9598 3.28209C47.805 3.28209 46.1503 3.86396 44.9502 5.02772C43.75 6.19147 43.15 7.828 43.15 9.92821H43.1591Z" fill="#151515"/>
<path d="M79.2363 0.472778H83.8186L90.7829 15.2288L97.72 0.472778H102.193V19.3838H98.511V5.85514L92.2104 19.3929H89.1646L82.864 5.99152V19.3929H79.2363V0.472778Z" fill="#151515"/>
<path d="M0.308594 35.7854H4.89087L11.8552 50.5414L18.7923 35.7854H23.2655V54.6964H19.5833V41.1587L13.2826 54.6964H10.2369L3.93623 41.295V54.6964H0.308594V35.7854Z" fill="#151515"/>
<path d="M40.8027 46.8047V35.7854H44.7213V47.0411C44.7213 48.7049 45.1486 49.9232 45.9942 50.7051C46.8397 51.487 48.1671 51.887 49.9673 51.887C51.7675 51.887 53.0949 51.4961 53.9404 50.7051C54.786 49.9232 55.2133 48.6958 55.2133 47.0411V35.7854H59.1319V46.8047C59.1319 49.6868 58.3591 51.7961 56.8043 53.1508C55.2496 54.5055 52.9767 55.1783 49.9673 55.1783C46.9579 55.1783 44.6668 54.5055 43.1211 53.1508C41.5755 51.7961 40.8027 49.6868 40.8027 46.8047Z" fill="#151515"/>
<path d="M81.4082 35.7854H85.0086L96.2642 49.3413V35.7854H100.028V54.6964H96.4279L85.1722 41.1132V54.6964H81.4082V35.7854Z" fill="#151515"/>
<path d="M9.83008 71.089H13.7487V90H9.83008V71.089Z" fill="#151515"/>
<path d="M48.0229 74.3711H40.5312V71.089H59.415V74.3711H51.9506V90H48.032V74.3711H48.0229Z" fill="#151515"/>
<path d="M88.7469 82.3447L80.7461 71.089H85.1374L90.7835 79.2716L96.4022 71.089H100.694L92.6655 82.3447V90H88.7469V82.3447Z" fill="#151515"/>
</g>
<defs>
<clipPath id="clip0_1187_1946">
<rect width="102.192" height="90" fill="white"/>
</clipPath>
</defs>
</svg>
