<svg width="283" height="64" viewBox="0 0 283 64" fill="none" xmlns="http://www.w3.org/2000/svg">
<g clip-path="url(#clip0_1096_2576)">
<path d="M45.8472 53.8216C45.6989 53.9116 45.5263 53.9918 45.3343 54.0671C45.1399 54.14 44.8823 54.1789 44.5542 54.1789C43.1567 54.1789 42.0873 53.8144 41.346 53.0877C40.6023 52.3585 40.0603 51.4617 39.7201 50.3923C39.3774 49.323 39.1781 48.1709 39.1198 46.9387C39.059 45.7065 39.0299 44.5982 39.0299 43.6188V13.3675C39.0299 13.0418 39.1417 12.7064 39.3628 12.3661C39.5864 12.0259 39.9048 11.8096 40.3204 11.7196C40.5586 11.6613 40.6777 11.5106 40.6777 11.2749V11.2287C40.6777 10.903 40.5294 10.7378 40.2329 10.7378H32.6573C32.3608 10.7378 32.2125 10.9006 32.2125 11.2287V11.2749C32.2125 11.5131 32.3316 11.6613 32.5698 11.7196C32.9854 11.8096 33.3062 12.0234 33.5274 12.3661C33.751 12.7088 33.8604 13.0418 33.8604 13.3675V36.0918C33.593 35.229 33.2066 34.3541 32.7011 33.4621C32.2855 32.6892 31.7362 31.8799 31.0532 31.0341C30.3703 30.1883 29.5245 29.4082 28.5135 28.6961C28.6034 26.4382 28.7128 24.2022 28.8464 21.9906C28.9801 19.7789 29.1964 17.6766 29.4929 15.6861C29.7894 13.6956 30.2075 11.8606 30.7422 10.1836C31.2768 8.50664 31.9962 7.05083 32.9028 5.81618C33.8093 4.58396 34.9225 3.61909 36.2446 2.91913C37.5667 2.2216 39.1781 1.87162 41.0787 1.87162C42.4154 1.87162 43.4192 2.16813 44.0851 2.76358C44.7535 3.35903 45.1545 4.0201 45.2882 4.7468C45.4218 5.47592 45.31 6.13699 44.9552 6.73001C44.5979 7.32546 44.0632 7.62197 43.3511 7.62197C42.8456 7.62197 42.4592 7.51017 42.1918 7.28901C41.9245 7.06541 41.7155 6.80535 41.5672 6.50884C41.4189 6.18317 41.3144 5.81132 41.2561 5.39572C41.0495 5.39572 40.8405 5.55126 40.6339 5.86236C40.4249 6.17345 40.2694 6.55988 40.1649 7.02166C40.0603 7.48344 40.0312 7.98896 40.0749 8.53581C40.1187 9.08508 40.2985 9.5906 40.6096 10.05C40.9207 10.5117 41.3898 10.8957 42.012 11.2093C42.6366 11.5204 43.4654 11.6783 44.5056 11.6783C45.6041 11.6783 46.5325 11.3891 47.2908 10.8082C48.0491 10.2298 48.5984 9.5104 48.9386 8.64761C49.2789 7.78724 49.4126 6.85153 49.3397 5.84048C49.2643 4.82943 48.9314 3.89615 48.3359 3.03336C47.7404 2.17056 46.8874 1.45116 45.7742 0.872722C44.6611 0.294285 43.2418 0.00506592 41.5186 0.00506592C39.3798 0.00506592 37.5011 0.355045 35.8825 1.05257C34.2638 1.7501 32.8542 2.71497 31.6511 3.94962C30.4481 5.18184 29.4224 6.63766 28.5767 8.31464C27.7309 9.99405 27.009 11.8266 26.416 13.8171C25.8206 15.8076 25.3321 17.9002 24.9456 20.0997C24.5592 22.2968 24.2165 24.5255 23.9224 26.7833C23.5651 26.725 23.186 26.6715 22.785 26.6278C22.384 26.5816 21.9757 26.5597 21.5601 26.5597C19.9852 26.5597 18.6484 26.8271 17.5499 27.3618C16.4513 27.8965 15.5813 28.5575 14.9445 29.3426C14.3053 30.13 13.8824 30.9831 13.6734 31.9042C13.4644 32.8253 13.4644 33.6784 13.6734 34.4659C13.88 35.2533 14.281 35.9144 14.8764 36.4491C15.4695 36.9838 16.2423 37.2511 17.1926 37.2511C17.8464 37.2511 18.3057 37.149 18.5731 36.94C18.6922 36.8209 18.7797 36.7018 18.8404 36.5852C18.2766 36.5852 17.861 36.223 17.5936 35.4939C17.3263 34.7648 17.3044 33.9652 17.528 33.0878C17.7516 32.2129 18.2474 31.4108 19.0203 30.6817C19.7932 29.955 20.9354 29.5905 22.4496 29.5905H23.0305C23.2079 29.5905 23.3877 29.605 23.5651 29.6342C23.2978 31.8337 23.0378 33.9944 22.785 36.1185C22.5322 38.2427 22.2357 40.2624 21.893 42.1775C21.5503 44.0927 21.1518 45.8596 20.69 47.4807C20.2306 49.0994 19.6498 50.4944 18.9522 51.6683C18.2547 52.8422 17.4162 53.7633 16.4343 54.4317C15.4549 55.1 14.2956 55.4354 12.9588 55.4354C11.6221 55.4354 10.4118 55.1608 9.50523 54.6115C8.59868 54.0623 7.90845 53.3793 7.43451 52.5627C6.95815 51.7461 6.6981 50.8541 6.65435 49.8892C6.61061 48.9244 6.75643 48.0324 7.09912 47.2158C7.44181 46.3992 7.98379 45.7162 8.72506 45.167C9.46634 44.6177 10.3729 44.343 11.4423 44.343C12.3926 44.343 13.1144 44.5885 13.6029 45.0795C14.0938 45.5704 14.4122 46.1343 14.5605 46.7735C14.7087 47.4127 14.7014 48.0664 14.5386 48.7324C14.3758 49.4007 14.1157 49.9135 13.7584 50.2684C14.6796 50.2684 15.4524 50.0156 16.0746 49.5125C16.6992 49.007 17.1586 48.3824 17.4551 47.6411C17.7516 46.8998 17.8707 46.0832 17.8099 45.1913C17.7492 44.3017 17.5134 43.4851 17.0978 42.7414C16.6822 42.0001 16.0722 41.3755 15.2702 40.87C14.4681 40.3645 13.4571 40.1117 12.2419 40.1117C10.5479 40.1117 9.10664 40.5419 7.9206 41.4022C6.73213 42.265 5.82558 43.349 5.2034 44.6566C4.57878 45.9641 4.27498 47.3738 4.28956 48.8879C4.30415 50.4021 4.65169 51.8117 5.33707 53.1193C6.02002 54.4268 7.06023 55.5108 8.45529 56.3711C9.85034 57.2339 11.6488 57.6641 13.8459 57.6641C15.9264 57.6641 17.7224 57.3239 19.2366 56.6409C20.7507 55.958 22.0291 55.0077 23.0693 53.7901C24.1096 52.5724 24.9481 51.1239 25.5873 49.4469C26.224 47.7675 26.7368 45.9495 27.1233 43.9882C27.5097 42.0269 27.7843 39.9562 27.9472 37.7736C28.11 35.5911 28.251 33.3697 28.3701 31.1119C29.4978 31.824 30.4189 32.7014 31.1334 33.7416C31.848 34.7818 32.4046 35.8804 32.8056 37.0372C33.2066 38.1965 33.4812 39.3534 33.6295 40.5127C33.7777 41.6696 33.8531 42.7098 33.8531 43.6309C33.8531 44.9385 33.9503 46.2971 34.1423 47.7067C34.3343 49.1164 34.7207 50.4094 35.3016 51.5832C35.88 52.7571 36.6991 53.722 37.7515 54.4803C38.8063 55.2386 40.2086 55.6153 41.9609 55.6153C43.0011 55.6153 43.8178 55.5035 44.4108 55.2823C45.0038 55.0587 45.4656 54.8157 45.7913 54.5459C46.1461 54.2178 46.3843 53.8484 46.5034 53.4328H46.1923C46.1023 53.581 45.9833 53.7147 45.8374 53.8338" fill="white"/>
<path d="M49.8586 14.9722H42.373C42.0765 14.9722 41.9258 15.1204 41.9258 15.4169V15.5069C41.9258 15.7159 42.0303 15.8495 42.2369 15.9079C42.6525 15.9978 42.9733 16.2044 43.1945 16.5325C43.4181 16.8606 43.5274 17.1863 43.5274 17.5119V43.9767C43.5274 44.3048 43.4156 44.6378 43.1945 44.9805C42.9709 45.3231 42.6525 45.5224 42.2369 45.5808C42.0303 45.6391 41.9258 45.7873 41.9258 46.0255V46.1155C41.9258 46.4144 42.074 46.5627 42.373 46.5627H49.8586C50.1552 46.5627 50.3034 46.4144 50.3034 46.1155V46.0255C50.3034 45.7873 50.1989 45.6391 49.9923 45.5808C49.5767 45.5224 49.2559 45.3207 49.0347 44.9805C48.8111 44.6402 48.7018 44.3048 48.7018 43.9767V17.5119C48.7018 17.1863 48.8136 16.8582 49.0347 16.5325C49.2583 16.2044 49.5767 15.9978 49.9923 15.9079C50.1989 15.8495 50.3034 15.7159 50.3034 15.5069V15.4169C50.3034 15.1204 50.1552 14.9722 49.8586 14.9722Z" fill="white"/>
<path d="M66.9665 39.9659C66.9665 39.1056 66.7064 38.4882 66.1863 38.1164C65.6662 37.747 65.1534 37.5598 64.6503 37.5598C64.0257 37.5598 63.4837 37.781 63.0243 38.2282C62.5626 38.673 62.3341 39.2222 62.3341 39.876C62.3341 40.4715 62.4605 40.9308 62.7133 41.2565C62.9636 41.5822 63.2479 41.813 63.559 41.9467C63.8701 42.0804 64.2955 42.163 64.8301 42.1922C64.6819 42.547 64.4437 42.8606 64.118 43.1279C63.8507 43.3661 63.4861 43.5727 63.0268 43.7525C62.565 43.9324 61.9793 44.0199 61.2672 44.0199C59.6923 44.0199 58.4382 43.3442 57.5025 41.9929C56.5667 40.6416 56.0394 38.8066 55.9203 36.4904H67.3262C67.3845 36.2523 67.4137 35.7856 67.4137 35.0881C67.4137 34.3906 67.3383 33.5885 67.1901 32.682C67.0418 31.7755 66.8036 30.8325 66.478 29.853C66.1499 28.8735 65.6832 27.9743 65.0756 27.1577C64.4656 26.3411 63.6951 25.6654 62.7594 25.1307C61.8237 24.596 60.6717 24.3287 59.3058 24.3287C57.9399 24.3287 56.8171 24.6179 55.7647 25.1963C54.7099 25.7748 53.8107 26.5719 53.0694 27.5806C52.3257 28.5916 51.7472 29.7704 51.3316 31.1217C50.916 32.473 50.707 33.9215 50.707 35.4672C50.707 37.013 50.9209 38.4591 51.3535 39.8104C51.7837 41.1617 52.3986 42.3356 53.2031 43.3296C54.0051 44.3237 54.97 45.1111 56.1001 45.692C57.2278 46.2704 58.4916 46.5621 59.8867 46.5621C61.0752 46.5621 62.1154 46.3531 63.0049 45.9375C63.8969 45.5219 64.6381 44.9872 65.2336 44.3334C65.8266 43.6796 66.2641 42.9675 66.5484 42.1946C66.8304 41.4218 66.9713 40.678 66.9713 39.9659M56.2046 31.3671C56.3966 30.2978 56.6421 29.3621 56.9386 28.56C57.2351 27.758 57.5851 27.1285 57.9861 26.6667C58.3871 26.2074 58.8246 25.9765 59.301 25.9765C59.8648 25.9765 60.3339 26.2511 60.7033 26.8004C61.0752 27.3497 61.3644 28.0545 61.571 28.9173C61.7775 29.7801 61.9282 30.7304 62.0157 31.7682C62.1057 32.8084 62.1494 33.834 62.1494 34.8426H55.8668C55.896 33.5934 56.0078 32.4365 56.1998 31.3671" fill="white"/>
<path d="M77.5635 34.5753L81.9747 26.6011C82.2129 26.2438 82.4875 25.94 82.7986 25.6873C83.1097 25.4345 83.4597 25.3081 83.8461 25.3081C83.936 25.3081 84.0089 25.2571 84.0697 25.1526C84.128 25.0481 84.1596 24.9509 84.1596 24.8634V24.7734C84.1596 24.4769 84.0089 24.3287 83.7148 24.3287H80.4168C80.1494 24.3287 80.0158 24.4794 80.0158 24.7734V24.8634C80.0158 24.9533 80.0376 25.0408 80.0838 25.1307C80.13 25.2206 80.2102 25.279 80.3293 25.3106C80.5966 25.3689 80.7084 25.4953 80.6623 25.6897C80.6185 25.8841 80.5359 26.098 80.4168 26.3362L76.7639 32.9299L73.7793 26.9146C73.6311 26.589 73.4828 26.2536 73.3346 25.9133C73.1863 25.573 73.3054 25.3713 73.6918 25.313C73.8984 25.2547 74.0029 25.104 74.0029 24.8682V24.7783C74.0029 24.4818 73.8692 24.3335 73.6019 24.3335H66.7409C66.4735 24.3335 66.3398 24.4842 66.3398 24.7783V24.8682C66.3398 24.9582 66.3836 25.0529 66.4735 25.1574C66.5634 25.262 66.6534 25.313 66.7409 25.313C67.0665 25.313 67.3873 25.4248 67.6984 25.646C68.0095 25.8696 68.255 26.1296 68.4349 26.4261L73.0672 36.0068L68.4786 44.2945C68.2404 44.6493 67.9658 44.9556 67.6547 45.2059C67.3436 45.4587 67.0082 45.585 66.6534 45.585C66.5343 45.585 66.4516 45.6361 66.4079 45.7406C66.3617 45.8451 66.3398 45.9399 66.3398 46.0298V46.1197C66.3398 46.4187 66.4735 46.5669 66.7409 46.5669H70.0389C70.3354 46.5669 70.4837 46.4187 70.4837 46.1197V46.0298C70.4837 45.7916 70.3792 45.6434 70.1726 45.585C69.8761 45.5267 69.7497 45.4003 69.7935 45.2059C69.8396 45.0139 69.9344 44.8 70.0827 44.5594L73.8693 37.6984L76.9 43.981C76.9899 44.1584 77.0798 44.331 77.1673 44.4938C77.2572 44.6566 77.3156 44.8219 77.3447 44.9847C77.3739 45.1476 77.3666 45.2812 77.3229 45.3858C77.2791 45.4903 77.1527 45.5559 76.9437 45.585C76.7347 45.6434 76.6326 45.7916 76.6326 46.0298V46.1197C76.6326 46.4187 76.7809 46.5669 77.0774 46.5669H82.7402C82.7913 46.059 82.8788 45.5607 83.01 45.082C82.8277 44.9313 82.6576 44.7733 82.5118 44.608L77.5659 34.5826L77.5635 34.5753Z" fill="white"/>
<path d="M116.676 30.3637C115.813 29.6054 114.841 29.027 113.757 28.6259C112.673 28.2249 111.582 27.9357 110.483 27.7583C112.058 27.0753 113.215 26.0813 113.959 24.7737C114.7 23.4662 115.072 21.8767 115.072 20.0077C115.072 18.7317 114.848 17.5408 114.403 16.4423C113.959 15.3438 113.312 14.3716 112.464 13.5234C111.618 12.6776 110.571 11.9703 109.324 11.4065C108.077 10.8426 106.665 10.4562 105.09 10.2472C105.18 9.35522 105.35 8.37576 105.603 7.30638C105.856 6.237 106.218 5.23567 106.694 4.29996C107.171 3.36426 107.771 2.5768 108.5 1.93761C109.227 1.30084 110.126 0.980024 111.195 0.980024C112.085 0.980024 112.814 1.15015 113.378 1.49284C113.942 1.8331 114.357 2.25113 114.625 2.73964C114.892 3.23058 115.026 3.77257 115.026 4.36559C115.026 4.95861 114.914 5.50302 114.693 5.99153C114.469 6.48247 114.158 6.89807 113.757 7.23833C113.356 7.58102 112.889 7.75115 112.355 7.75115C111.759 7.75115 111.322 7.63935 111.04 7.41818C110.758 7.19458 110.556 6.93453 110.437 6.63802C110.318 6.30991 110.26 5.92348 110.26 5.47871C109.844 5.47871 109.501 5.80682 109.236 6.45817C108.969 7.11195 108.903 7.83378 109.035 8.6188C109.168 9.40626 109.569 10.1257 110.238 10.7794C110.906 11.4332 111.997 11.7589 113.512 11.7589C114.61 11.7589 115.553 11.4697 116.341 10.8888C117.126 10.3104 117.714 9.59097 118.1 8.72817C118.484 7.86781 118.657 6.9321 118.613 5.92105C118.569 4.91243 118.273 3.97672 117.721 3.11392C117.172 2.25356 116.37 1.53173 115.315 0.953289C114.26 0.374851 112.916 0.0856323 111.283 0.0856323C109.65 0.0856323 108.143 0.404016 106.85 1.04321C105.557 1.68241 104.444 2.49903 103.508 3.49307C102.572 4.48711 101.814 5.58808 101.238 6.79114C100.657 7.99419 100.249 9.1462 100.013 10.2448C98.1708 10.4829 96.3504 10.9812 94.5543 11.737C92.7583 12.4953 91.1542 13.5428 89.7421 14.8771C88.3325 16.2138 87.1878 17.8325 86.3104 19.7331C85.433 21.6337 84.9955 23.8307 84.9955 26.3268C84.9955 28.3756 85.2556 30.0696 85.7757 31.4063C86.2958 32.7431 86.9569 33.7906 87.7589 34.5464C88.5609 35.3047 89.414 35.8248 90.3206 36.1068C91.2271 36.3887 92.0802 36.4786 92.8822 36.3741C93.6843 36.2696 94.3453 36.0265 94.8654 35.6401C95.3831 35.2537 95.6456 34.7943 95.6456 34.2596C94.3089 34.0215 93.1204 33.5184 92.0826 32.7455C91.6378 32.4198 91.1979 32.0261 90.7678 31.5643C90.3351 31.105 89.9584 30.5484 89.6303 29.8922C89.3022 29.2384 89.0373 28.4898 88.8283 27.6416C88.6193 26.7958 88.5172 25.8358 88.5172 24.7689C88.5172 22.8683 88.8429 21.1524 89.4966 19.6237C90.1504 18.095 91.0108 16.7728 92.0802 15.6573C93.1496 14.5441 94.3526 13.6376 95.6893 12.9401C97.0261 12.2425 98.3919 11.7589 99.787 11.4916C99.7578 11.6714 99.7433 11.8488 99.7433 12.0262V47.046C99.7433 47.6706 99.595 48.4654 99.2985 49.4303C99.002 50.3951 98.5402 51.3454 97.9156 52.2811C97.2934 53.2168 96.4962 54.0189 95.5314 54.6872C94.5665 55.3556 93.4145 55.6886 92.0777 55.6886C90.741 55.6886 89.6862 55.3993 88.8259 54.8209C87.9631 54.24 87.3044 53.5279 86.8426 52.6822C86.3809 51.8364 86.1232 50.9055 86.0625 49.8969C86.0017 48.8858 86.1208 47.9599 86.4197 47.1116C86.7163 46.2659 87.2048 45.5538 87.8902 44.9729C88.5731 44.3944 89.4189 44.1028 90.4299 44.1028C91.441 44.1028 92.2114 44.3629 92.6562 44.883C93.1009 45.4031 93.361 45.9888 93.4363 46.6426C93.5093 47.2939 93.4655 47.9258 93.3027 48.5359C93.1398 49.1435 92.9843 49.5226 92.836 49.6733C93.9054 49.6733 94.7804 49.4278 95.4633 48.9369C96.1463 48.4459 96.6372 47.8311 96.9337 47.0873C97.2302 46.3461 97.3347 45.5416 97.2448 44.6812C97.1549 43.8209 96.8802 43.0188 96.4209 42.2751C95.9591 41.5339 95.3053 40.9165 94.4595 40.4256C93.6138 39.9346 92.5808 39.6892 91.3632 39.6892C89.5817 39.6892 88.0724 40.1339 86.8402 41.0259C85.608 41.9179 84.6796 43.031 84.055 44.3677C83.4303 45.7044 83.1265 47.1432 83.1411 48.689C83.1557 50.2347 83.5276 51.6735 84.2543 53.0103C84.981 54.347 86.0819 55.4625 87.5523 56.3521C89.0227 57.244 90.8868 57.6888 93.1447 57.6888C94.8387 57.6888 96.3455 57.4506 97.6677 56.9743C98.9898 56.5003 100.125 55.8684 101.075 55.081C102.025 54.2935 102.806 53.387 103.416 52.3638C104.026 51.3381 104.446 50.2931 104.684 49.2237C105.547 49.2237 106.512 49.2067 107.581 49.1775C108.651 49.1483 109.735 49.022 110.833 48.7984C111.932 48.5772 113.001 48.2345 114.041 47.7752C115.082 47.3134 116.008 46.662 116.827 45.8138C117.643 44.968 118.297 43.8914 118.786 42.5838C119.276 41.2762 119.52 39.6722 119.52 37.7716C119.52 35.9901 119.259 34.4978 118.739 33.2948C118.219 32.0917 117.529 31.1123 116.669 30.354M104.913 12.5196C104.913 12.4005 104.92 12.2741 104.935 12.1405C104.949 12.0068 104.956 11.8658 104.956 11.7176C105.907 12.0141 106.702 12.4516 107.341 13.0324C107.977 13.6133 108.498 14.2744 108.899 15.0156C109.3 15.7594 109.589 16.5687 109.766 17.4436C109.946 18.321 110.034 19.2032 110.034 20.0952C110.034 21.0455 109.915 21.9593 109.676 22.8343C109.438 23.7117 109.095 24.4894 108.653 25.1748C108.208 25.8577 107.664 26.407 107.027 26.8226C106.388 27.2382 105.683 27.4448 104.91 27.4448V12.5196H104.913ZM112.666 40.7683C112.428 41.6578 112.124 42.438 111.752 43.1063C111.38 43.7747 110.95 44.3313 110.459 44.776C109.968 45.2232 109.472 45.5926 108.967 45.8916C107.778 46.5745 106.427 46.961 104.913 47.0485V28.7377C106.427 28.7377 107.778 29.0488 108.967 29.6735C109.472 29.9408 109.968 30.2908 110.459 30.721C110.947 31.1511 111.38 31.6883 111.752 32.325C112.124 32.9642 112.428 33.7225 112.666 34.5975C112.904 35.4748 113.023 36.5078 113.023 37.6938C113.023 38.8798 112.904 39.8763 112.666 40.7683Z" fill="white"/>
<path d="M128.17 45.5808C127.754 45.5224 127.436 45.3207 127.212 44.9805C126.988 44.6402 126.877 44.3048 126.877 43.9767V17.5119C126.877 17.1863 126.988 16.8582 127.212 16.5325C127.436 16.2044 127.754 15.9978 128.17 15.9079C128.376 15.8495 128.481 15.7159 128.481 15.5069V15.4169C128.481 15.1204 128.332 14.9722 128.036 14.9722H120.55C120.254 14.9722 120.105 15.1204 120.105 15.4169V15.5069C120.105 15.7159 120.208 15.8495 120.417 15.9079C120.832 15.9978 121.151 16.2044 121.374 16.5325C121.598 16.8606 121.71 17.1863 121.71 17.5119V43.9767C121.71 44.3048 121.598 44.6378 121.374 44.9805C121.151 45.3231 120.832 45.5224 120.417 45.5808C120.208 45.6391 120.105 45.7873 120.105 46.0255V46.1155C120.105 46.4144 120.254 46.5627 120.55 46.5627H128.036C128.332 46.5627 128.481 46.4144 128.481 46.1155V46.0255C128.481 45.7873 128.376 45.6391 128.17 45.5808Z" fill="white"/>
<path d="M146.442 45.6239C146.024 45.5339 145.713 45.3274 145.507 45.0017C145.298 44.676 145.193 44.3479 145.193 44.0222V31.1459C145.193 29.7217 144.933 28.5697 144.415 27.6923C143.895 26.8149 143.234 26.1247 142.432 25.6192C141.63 25.1136 140.753 24.7734 139.802 24.5935C138.852 24.4161 137.931 24.3262 137.039 24.3262C135.287 24.3262 133.957 24.5425 133.051 24.9727C132.144 25.4028 131.493 25.8792 131.092 26.3969C130.691 26.917 130.467 27.4006 130.423 27.8454C130.38 28.2902 130.355 28.5284 130.355 28.5575C130.355 29.1821 130.579 29.7241 131.024 30.1835C131.469 30.6428 132.018 30.8737 132.672 30.8737C133.325 30.8737 133.875 30.6452 134.319 30.1835C134.764 29.7241 134.988 29.1797 134.988 28.5575C134.988 28.052 134.847 27.5999 134.565 27.1989C134.283 26.7979 133.904 26.5233 133.427 26.375C133.634 26.1077 133.991 25.8695 134.497 25.6629C135.002 25.4563 135.668 25.3518 136.502 25.3518C137.336 25.3518 138.023 25.5365 138.483 25.9084C138.945 26.2802 139.292 26.6885 139.53 27.1309C139.798 27.6656 139.96 28.244 140.021 28.8662V32.3806C138.804 31.7948 137.54 31.5007 136.232 31.5007C135.104 31.5007 134.042 31.6952 133.046 32.0816C132.052 32.468 131.189 33.0052 130.462 33.6905C129.733 34.3759 129.155 35.1804 128.725 36.1015C128.292 37.0251 128.078 38.007 128.078 39.0496C128.078 40.0922 128.294 41.0693 128.725 41.9782C129.155 42.8872 129.733 43.6844 130.462 44.3673C131.189 45.0527 132.052 45.5898 133.046 45.9763C134.04 46.3627 135.102 46.5571 136.232 46.5571C137.54 46.5571 138.801 46.2631 140.021 45.6773V46.5571H146.348C146.644 46.5571 146.792 46.4089 146.792 46.1099V46.02C146.792 45.8134 146.673 45.6798 146.437 45.619M140.026 41.8932C139.846 42.7803 139.586 43.4632 139.246 43.9347C138.903 44.4087 138.548 44.7562 138.176 44.9774C137.805 45.1985 137.44 45.3249 137.085 45.3541C136.73 45.3857 136.446 45.4003 136.239 45.4003C135.824 45.4003 135.437 45.2374 135.08 44.9117C134.725 44.5861 134.412 44.1364 134.144 43.558C133.877 42.9796 133.661 42.3064 133.498 41.5383C133.335 40.7703 133.252 39.9391 133.252 39.052C133.252 38.1649 133.335 37.3362 133.498 36.5657C133.661 35.7953 133.877 35.1221 134.144 34.546C134.412 33.9676 134.723 33.5107 135.08 33.1704C135.437 32.8302 135.821 32.6601 136.239 32.6601C136.446 32.6601 136.73 32.6746 137.085 32.7038C137.44 32.733 137.805 32.8593 138.176 33.0805C138.548 33.3017 138.903 33.6517 139.246 34.1232C139.586 34.5971 139.846 35.2776 140.026 36.1647V41.8932Z" fill="white"/>
<path d="M178.556 50.4363C178.288 51.0002 177.946 51.5057 177.53 51.9504C177.175 52.3345 176.699 52.6844 176.106 52.998C175.51 53.309 174.784 53.467 173.923 53.467C172.261 53.467 170.791 53.0952 169.512 52.3515C168.234 51.6102 167.084 50.6502 166.059 49.4787C165.035 48.3048 164.122 46.99 163.32 45.5366C162.517 44.0808 161.784 42.6347 161.115 41.1935C160.447 39.7522 159.815 38.3936 159.222 37.1177C158.629 35.8417 158.033 34.8015 157.44 33.9994C158.272 33.6422 159.095 33.1901 159.912 32.6408C160.729 32.0916 161.458 31.4985 162.097 30.8594C162.734 30.2202 163.256 29.5591 163.655 28.8761C164.056 28.1932 164.258 27.5102 164.258 26.8273C164.258 25.6996 163.835 24.7785 162.987 24.0639C162.141 23.3518 161.169 22.9945 160.07 22.9945C158.882 22.9945 157.892 23.2473 157.107 23.7528C156.32 24.2584 155.688 24.8076 155.214 25.4007C154.679 26.1128 154.249 26.9148 153.921 27.8068V19.4753C157.96 19.4753 161.273 19.0524 163.857 18.2066C166.443 17.3609 168.394 16.3061 169.716 15.0422C171.039 13.7809 171.78 12.4125 171.945 10.9446C172.108 9.47417 171.794 8.10828 171.009 6.84447C170.222 5.58309 168.997 4.53558 167.332 3.70438C165.667 2.87318 163.679 2.45758 161.361 2.45758C159.042 2.45758 157.015 2.93394 155.457 3.8818C153.899 4.83209 152.643 6.02785 151.692 7.46909C150.742 8.91032 150.059 10.4974 149.644 12.2351C149.228 13.9729 148.961 15.6134 148.842 17.1591C147.357 16.7751 145.796 16.2696 144.163 15.645C142.53 15.0204 140.875 14.3739 139.195 13.7079C135.066 12.0626 130.937 10.1717 126.455 9.76339C122.289 9.38425 117.339 10.388 115.227 14.3812C115.351 14.3253 115.474 14.2718 115.606 14.2183C115.662 14.194 115.722 14.1746 115.778 14.1527C116.651 13.8173 117.326 13.2462 118.277 12.9934C119.502 12.6677 120.753 12.4952 122.02 12.466C124.581 12.4077 126.341 12.8524 128.781 13.5986C131.96 14.5707 134.07 15.82 138.877 17.1907C142.056 18.0973 145.463 18.8045 148.754 19.1618V44.0225C148.754 44.3506 148.642 44.6762 148.421 45.0019C148.198 45.33 147.879 45.5366 147.464 45.6265C147.225 45.6873 147.106 45.821 147.106 46.0275V46.1175C147.106 46.414 147.255 46.5647 147.551 46.5647H155.08C155.377 46.5647 155.525 46.4164 155.525 46.1175V46.0275C155.525 45.821 155.421 45.6873 155.214 45.6265C154.798 45.5366 154.478 45.33 154.257 45.0019C154.033 44.6762 153.921 44.3481 153.921 44.0225V34.889C154.723 34.889 155.37 35.2317 155.858 35.9146C156.349 36.5975 156.772 37.5114 157.129 38.6561C157.484 39.8008 157.819 41.0914 158.133 42.5326C158.444 43.9738 158.823 45.4442 159.268 46.9438C159.713 48.4434 160.255 49.9138 160.894 51.355C161.533 52.7962 162.357 54.0892 163.366 55.2315C164.374 56.3738 165.624 57.2876 167.109 57.9706C168.594 58.6535 170.39 58.9962 172.499 58.9962C173.865 58.9962 174.985 58.7896 175.863 58.3716C176.738 57.956 177.435 57.4286 177.955 56.7894C178.473 56.1502 178.83 55.46 179.025 54.7187C179.219 53.975 179.314 53.2847 179.314 52.648C179.314 52.0112 179.231 51.4814 179.069 51.0658C178.903 50.6502 178.733 50.4412 178.556 50.4412M153.916 15.5502C153.945 14.4808 154.04 13.2705 154.205 11.9192C154.368 10.5679 154.711 9.29918 155.231 8.11071C155.751 6.92224 156.5 5.92091 157.479 5.1043C158.461 4.28768 159.781 3.87937 161.446 3.87937C162.544 3.87937 163.546 4.22935 164.452 4.92688C165.359 5.6244 166.034 6.49449 166.479 7.53228C166.924 8.57249 167.087 9.7002 166.97 10.9178C166.851 12.1355 166.331 13.2656 165.41 14.3034C164.489 15.3436 163.101 16.2137 161.244 16.9088C159.387 17.6063 156.959 17.9563 153.96 17.9563H153.916V15.5502ZM156.522 31.7003C156.031 32.0114 155.579 32.2738 155.163 32.4804C154.568 32.7478 154.152 32.8815 153.916 32.8815V31.8121C153.916 30.7719 154.198 29.8459 154.762 29.0268C155.326 28.2102 155.951 27.5856 156.633 27.1554C157.316 26.7252 157.939 26.5454 158.505 26.6207C159.069 26.6961 159.351 27.0874 159.351 27.8019C159.351 28.3366 159.21 28.8421 158.928 29.316C158.646 29.7924 158.296 30.2299 157.88 30.6309C157.465 31.0319 157.01 31.3892 156.522 31.7003Z" fill="white"/>
<path d="M178.832 29.853C178.504 28.8711 178.037 27.9743 177.427 27.1577C176.82 26.3411 176.047 25.6654 175.111 25.1307C174.175 24.596 173.026 24.3287 171.657 24.3287C170.289 24.3287 169.169 24.6179 168.116 25.1988C167.061 25.7772 166.162 26.5719 165.421 27.583C164.68 28.594 164.101 29.7728 163.683 31.1241C163.268 32.4754 163.059 33.9239 163.059 35.4697C163.059 37.0154 163.275 38.4615 163.705 39.8128C164.135 41.1641 164.753 42.338 165.555 43.3321C166.357 44.3285 167.322 45.1135 168.452 45.6944C169.579 46.2753 170.841 46.5645 172.238 46.5645C173.427 46.5645 174.467 46.3579 175.356 45.9399C176.246 45.5243 176.99 44.9896 177.585 44.3358C178.178 43.682 178.618 42.9699 178.9 42.1971C179.182 41.4242 179.325 40.6805 179.325 39.9684C179.325 39.108 179.065 38.4907 178.545 38.1188C178.025 37.747 177.512 37.5623 177.009 37.5623C176.385 37.5623 175.843 37.7859 175.381 38.2306C174.921 38.6754 174.691 39.2247 174.691 39.8784C174.691 40.4739 174.817 40.9332 175.07 41.2613C175.322 41.587 175.604 41.8179 175.915 41.9516C176.229 42.0853 176.652 42.1679 177.187 42.1971C177.036 42.5543 176.8 42.8654 176.474 43.1328C176.207 43.3709 175.843 43.5775 175.381 43.7549C174.921 43.9348 174.336 44.0223 173.624 44.0223C172.049 44.0223 170.795 43.3466 169.859 41.9953C168.923 40.644 168.396 38.8091 168.277 36.4929H179.683C179.741 36.2547 179.77 35.7881 179.77 35.0905C179.77 34.393 179.695 33.591 179.546 32.6844C179.398 31.7779 179.16 30.8349 178.834 29.8554M168.228 34.8426C168.257 33.5958 168.369 32.4365 168.561 31.3671C168.753 30.2978 168.999 29.3621 169.295 28.56C169.592 27.758 169.942 27.1285 170.343 26.6667C170.744 26.2074 171.181 25.9765 171.657 25.9765C172.221 25.9765 172.69 26.2511 173.06 26.8004C173.432 27.3497 173.721 28.0545 173.927 28.9173C174.134 29.7801 174.285 30.7304 174.375 31.7682C174.462 32.8084 174.508 33.8316 174.508 34.8426H168.228Z" fill="white"/>
<path d="M212.983 56.1845C213.19 55.798 213.272 55.4481 213.228 55.137C213.182 54.8259 213.073 54.6679 212.893 54.6679C212.745 54.787 212.553 54.9061 212.315 55.0252C212.108 55.1151 211.826 55.1953 211.469 55.2706C211.114 55.3436 210.667 55.3824 210.132 55.3824C206.302 55.3824 202.996 54.6679 200.218 53.2437C197.441 51.817 195.139 49.9383 193.311 47.6076C191.486 45.2768 190.118 42.6252 189.214 39.6553C188.307 36.6853 187.794 33.64 187.675 30.5218C187.556 27.4036 187.816 24.3583 188.455 21.3883C189.092 18.4183 190.042 15.7692 191.306 13.436C192.568 11.1052 194.125 9.22652 195.982 7.79987C197.837 6.37322 199.924 5.66111 202.243 5.66111C203.461 5.66111 204.498 5.95033 205.361 6.52877C206.224 7.1072 206.883 7.82174 207.344 8.66753C207.804 9.51331 208.078 10.4442 208.168 11.4528C208.256 12.4638 208.151 13.3898 207.855 14.238C207.464 15.3584 206.691 16.1629 206.615 17.4267C206.55 18.5131 207.087 19.2665 208.205 19.3686C211.442 19.6603 212.179 15.6574 212.064 13.2367C211.989 11.6739 211.583 10.2303 210.839 8.90571C210.096 7.58113 209.019 6.47044 207.607 5.57848C206.197 4.68408 204.45 4.23932 202.372 4.23932C199.46 4.23932 196.721 4.7813 194.152 5.86769C191.583 6.95166 189.34 8.55087 187.425 10.6605C185.51 12.7725 183.986 15.3803 182.858 18.4864C181.728 21.5949 181.164 25.1822 181.164 29.2555C181.164 31.0978 181.356 33.0834 181.743 35.2076C182.127 37.3342 182.758 39.4511 183.636 41.5631C184.511 43.6727 185.67 45.7021 187.111 47.6489C188.553 49.5956 190.327 51.3115 192.434 52.7989C194.541 54.2839 197.023 55.4724 199.873 56.3668C202.724 57.2587 205.993 57.7035 209.675 57.7035C210.596 57.7035 211.323 57.5479 211.86 57.2369C212.395 56.9258 212.767 56.5758 212.973 56.1893" fill="white"/>
<path d="M209.597 24.9076C208.839 24.492 207.823 24.283 206.547 24.283C205.358 24.283 204.386 24.5576 203.628 25.1069C202.869 25.6562 202.284 26.2589 201.868 26.9127V17.5119C201.868 17.1862 201.973 16.8581 202.179 16.5324C202.388 16.2067 202.699 15.9977 203.117 15.9078C203.353 15.8495 203.475 15.7012 203.475 15.463V15.3731C203.475 15.0766 203.324 14.9283 203.027 14.9283H195.498C195.201 14.9283 195.051 15.0766 195.051 15.3731V15.463C195.051 15.7012 195.17 15.8495 195.408 15.9078C195.824 15.9977 196.142 16.2043 196.366 16.5324C196.589 16.8605 196.701 17.1862 196.701 17.5119V43.9766C196.701 44.3047 196.589 44.6304 196.366 44.9561C196.142 45.2842 195.824 45.4908 195.408 45.5807C195.17 45.639 195.051 45.7897 195.051 46.0254V46.1154C195.051 46.4143 195.201 46.5626 195.498 46.5626H203.027C203.324 46.5626 203.475 46.4143 203.475 46.1154V46.0254C203.475 45.7873 203.355 45.639 203.117 45.5807C202.702 45.4908 202.388 45.2842 202.179 44.9561C201.973 44.6304 201.868 44.3047 201.868 43.9766V30.743C201.868 30.3566 201.912 29.941 202.002 29.4962C202.092 29.0515 202.255 28.6432 202.493 28.2713C202.731 27.8994 203.042 27.5884 203.428 27.3356C203.812 27.0853 204.303 26.9564 204.899 26.9564C205.73 26.9564 206.323 27.321 206.68 28.0477C207.035 28.7768 207.215 29.6736 207.215 30.743V44.0204C207.215 44.2877 207.096 44.5939 206.86 44.9342C206.622 45.2769 206.296 45.4908 205.878 45.5807C205.672 45.639 205.567 45.7897 205.567 46.0254V46.1154C205.567 46.4143 205.715 46.5626 206.012 46.5626H213.541C213.838 46.5626 213.986 46.4143 213.986 46.1154V46.0254C213.986 45.7873 213.867 45.639 213.629 45.5807C213.242 45.4908 212.953 45.3133 212.761 45.046C212.567 44.7787 212.44 44.4967 212.382 44.1978V30.743C212.382 30.0601 212.314 29.3383 212.18 28.5824C212.047 27.8241 211.77 27.1266 211.356 26.4898C210.938 25.8506 210.355 25.3232 209.597 24.9076Z" fill="white"/>
<path d="M215.836 44.3701C216.565 45.0554 217.425 45.5926 218.422 45.979C219.416 46.3654 220.478 46.5599 221.608 46.5599C222.913 46.5599 224.177 46.2658 225.395 45.6776V46.5599H231.721C232.018 46.5599 232.166 46.4116 232.166 46.1127V46.0227C232.166 45.8162 232.047 45.6825 231.811 45.6217C231.393 45.5318 231.082 45.3252 230.875 44.9971C230.666 44.6714 230.562 44.3433 230.562 44.0177V31.1413C230.562 29.7171 230.302 28.5651 229.782 27.6877C229.261 26.8103 228.6 26.1201 227.798 25.6146C226.996 25.1091 226.119 24.7688 225.169 24.5914C224.218 24.414 223.297 24.324 222.405 24.324C220.653 24.324 219.324 24.5403 218.419 24.9705C217.513 25.4007 216.859 25.8771 216.458 26.3947C216.057 26.9149 215.833 27.3985 215.79 27.8433C215.746 28.288 215.722 28.5262 215.722 28.5578C215.722 29.1824 215.945 29.7244 216.39 30.1838C216.835 30.6431 217.384 30.874 218.038 30.874C218.692 30.874 219.241 30.6431 219.688 30.1838C220.133 29.7244 220.356 29.1824 220.356 28.5578C220.356 28.0523 220.215 27.6002 219.934 27.1992C219.652 26.7982 219.272 26.5236 218.796 26.3753C219.003 26.108 219.36 25.8698 219.866 25.6608C220.371 25.4542 221.037 25.3497 221.871 25.3497C222.704 25.3497 223.392 25.5344 223.851 25.9062C224.313 26.2757 224.661 26.6864 224.901 27.1287C225.169 27.6634 225.331 28.2419 225.39 28.864V32.3808C224.172 31.7951 222.908 31.501 221.603 31.501C220.473 31.501 219.411 31.6955 218.417 32.0819C217.421 32.4683 216.56 33.0055 215.831 33.6908C215.102 34.3762 214.523 35.1807 214.093 36.1042C213.663 37.0278 213.449 38.0097 213.449 39.0523C213.449 40.095 213.663 41.072 214.093 41.981C214.523 42.8899 215.102 43.6871 215.831 44.3701M218.864 36.566C219.027 35.7956 219.243 35.1223 219.511 34.5463C219.778 33.9679 220.089 33.511 220.446 33.1707C220.801 32.8305 221.188 32.6603 221.606 32.6603C221.812 32.6603 222.094 32.6749 222.451 32.7041C222.809 32.7333 223.171 32.8596 223.543 33.0808C223.915 33.302 224.269 33.6519 224.612 34.1234C224.952 34.5974 225.212 35.2779 225.392 36.165V41.8935C225.212 42.7806 224.955 43.4635 224.612 43.935C224.269 44.4089 223.915 44.7565 223.543 44.9777C223.171 45.2013 222.809 45.3276 222.451 45.3544C222.097 45.386 221.812 45.4006 221.606 45.4006C221.19 45.4006 220.804 45.2377 220.446 44.912C220.089 44.5864 219.778 44.1343 219.511 43.5583C219.243 42.9823 219.027 42.3066 218.864 41.5386C218.701 40.7682 218.619 39.9394 218.619 39.0523C218.619 38.1652 218.701 37.3365 218.864 36.566Z" fill="white"/>
<path d="M248.67 29.0047C248.67 28.4409 248.588 27.877 248.427 27.3107C248.262 26.7469 247.987 26.2413 247.601 25.7966C247.214 25.3494 246.711 24.9945 246.087 24.7272C245.462 24.4598 244.689 24.3262 243.77 24.3262C243.058 24.3262 242.92 24.4307 242.324 24.6373C241.731 24.8463 241.218 25.0674 240.788 25.3056C240.358 25.5438 240.03 25.7601 239.809 25.9521C239.585 26.1465 239.49 26.2268 239.52 26.1976V24.3262H233.193C232.897 24.3262 232.746 24.4769 232.746 24.7709V24.8609C232.746 25.0699 232.865 25.2036 233.103 25.2619C233.519 25.3518 233.83 25.5584 234.039 25.8865C234.246 26.2146 234.353 26.5403 234.353 26.866V44.0198C234.353 44.3479 234.246 44.6736 234.039 45.0017C233.832 45.3298 233.519 45.5364 233.103 45.6239C232.865 45.6846 232.746 45.8183 232.746 46.0249V46.1148C232.746 46.4137 232.894 46.562 233.193 46.562H240.723C241.019 46.562 241.17 46.4137 241.17 46.1148V46.0249C241.17 45.8183 241.051 45.6846 240.813 45.6239C240.397 45.5339 240.076 45.3274 239.855 45.0017C239.634 44.6736 239.522 44.3479 239.522 44.0198V34.1304C239.522 33.5666 239.59 32.8375 239.724 31.9479C239.857 31.056 240.11 30.181 240.48 29.3182C240.852 28.4579 241.393 27.7142 242.106 27.0895C242.82 26.4649 243.241 26.1538 244.397 26.1538C244.993 26.1538 245.438 26.2438 245.734 26.4212C246.031 26.601 246.24 26.8076 246.359 27.0458C245.705 27.0458 245.156 27.2694 244.709 27.7142C244.264 28.1589 244.04 28.7082 244.04 29.362C244.04 30.0158 244.264 30.565 244.709 31.0098C245.153 31.4546 245.705 31.6782 246.359 31.6782C247.013 31.6782 247.562 31.3962 248.007 30.8324C248.454 30.2685 248.675 29.6585 248.675 29.0047" fill="white"/>
<path d="M247.987 15.9079C248.402 15.9978 248.723 16.2044 248.944 16.5325C249.168 16.8606 249.28 17.1863 249.28 17.5119V43.9767C249.28 44.3048 249.168 44.6378 248.944 44.978C248.723 45.3207 248.402 45.52 247.987 45.5808C247.78 45.6391 247.676 45.7873 247.676 46.0255V46.1155C247.676 46.4144 247.824 46.5627 248.121 46.5627H255.606C255.903 46.5627 256.051 46.4144 256.051 46.1155V46.0255C256.051 45.7873 255.946 45.6391 255.74 45.5808C255.324 45.52 255.003 45.3207 254.782 44.978C254.559 44.6378 254.447 44.3024 254.447 43.9767V17.5119C254.447 17.1863 254.559 16.8582 254.782 16.5325C255.006 16.2068 255.324 15.9978 255.74 15.9079C255.946 15.8495 256.051 15.7159 256.051 15.5069V15.4169C256.051 15.1204 255.903 14.9722 255.606 14.9722H248.121C247.822 14.9722 247.676 15.1204 247.676 15.4169V15.5069C247.676 15.7134 247.78 15.8495 247.987 15.9079Z" fill="white"/>
<path d="M260.945 22.5014C261.657 22.5014 262.265 22.2487 262.773 21.7432C263.279 21.2376 263.531 20.63 263.531 19.9155C263.531 19.2009 263.279 18.5933 262.773 18.0878C262.267 17.5823 261.657 17.3295 260.945 17.3295C260.233 17.3295 259.623 17.5823 259.118 18.0878C258.612 18.5933 258.359 19.2009 258.359 19.9155C258.359 20.63 258.612 21.2376 259.118 21.7432C259.623 22.2487 260.231 22.5014 260.945 22.5014Z" fill="white"/>
<path d="M264.732 24.3263H257.203C256.906 24.3263 256.758 24.477 256.758 24.7711V24.861C256.758 25.0992 256.877 25.2474 257.113 25.3058C257.528 25.3665 257.842 25.5658 258.051 25.9085C258.257 26.2512 258.362 26.5841 258.362 26.9098V43.9737C258.362 44.3018 258.257 44.6348 258.051 44.9751C257.842 45.3178 257.531 45.517 257.113 45.5778C256.874 45.6361 256.758 45.7844 256.758 46.0226V46.1125C256.758 46.4114 256.906 46.5597 257.203 46.5597H264.732C265.028 46.5597 265.177 46.4114 265.177 46.1125V46.0226C265.177 45.7844 265.058 45.6361 264.819 45.5778C264.404 45.5195 264.085 45.3178 263.862 44.9751C263.638 44.6348 263.529 44.2994 263.529 43.9737V26.9098C263.529 26.5841 263.641 26.2487 263.862 25.9085C264.085 25.5682 264.404 25.3665 264.819 25.3058C265.058 25.2474 265.177 25.0992 265.177 24.861V24.7711C265.177 24.4745 265.028 24.3263 264.732 24.3263Z" fill="white"/>
<path d="M282.462 35.0883C282.462 34.3908 282.387 33.5887 282.238 32.6822C282.09 31.7756 281.852 30.8326 281.526 29.8532C281.198 28.8713 280.732 27.9745 280.124 27.1579C279.514 26.3412 278.741 25.6656 277.808 25.1309C276.872 24.5962 275.72 24.3289 274.354 24.3289C272.988 24.3289 271.865 24.6181 270.813 25.1989C269.758 25.7774 268.859 26.5721 268.118 27.5832C267.376 28.5942 266.798 29.773 266.38 31.1243C265.964 32.4756 265.758 33.9241 265.758 35.4699C265.758 37.0156 265.974 38.4617 266.404 39.813C266.834 41.1643 267.452 42.3382 268.254 43.3322C269.056 44.3287 270.021 45.1137 271.151 45.6946C272.279 46.2755 273.542 46.5647 274.937 46.5647C276.126 46.5647 277.166 46.3581 278.056 45.9401C278.945 45.5245 279.689 44.9898 280.284 44.336C280.877 43.6822 281.317 42.9701 281.599 42.1972C281.881 41.4244 282.022 40.6807 282.022 39.9685C282.022 39.1082 281.762 38.4909 281.242 38.119C280.722 37.7472 280.209 37.5624 279.706 37.5624C279.081 37.5624 278.539 37.786 278.08 38.2308C277.618 38.6756 277.39 39.2248 277.39 39.8786C277.39 40.4741 277.516 40.9334 277.769 41.2615C278.022 41.5872 278.304 41.8181 278.615 41.9518C278.926 42.0854 279.349 42.1681 279.886 42.1972C279.735 42.5545 279.499 42.8656 279.174 43.1329C278.906 43.3711 278.542 43.5777 278.082 43.7551C277.621 43.935 277.035 44.0225 276.323 44.0225C274.748 44.0225 273.494 43.3468 272.558 41.9955C271.622 40.6442 271.093 38.8092 270.976 36.4931H282.382C282.44 36.2549 282.472 35.7882 282.472 35.0907M270.925 34.8428C270.954 33.596 271.066 32.4367 271.258 31.3673C271.45 30.2979 271.695 29.3622 271.992 28.5602C272.288 27.7582 272.638 27.1287 273.039 26.6669C273.44 26.2076 273.878 25.9767 274.354 25.9767C274.918 25.9767 275.385 26.2513 275.757 26.8006C276.128 27.3499 276.418 28.0547 276.624 28.9175C276.831 29.7803 276.981 30.7306 277.071 31.7683C277.159 32.8086 277.205 33.8318 277.205 34.8428H270.925Z" fill="white"/>
<path d="M6.24615 28.9174C6.91209 28.9174 7.49052 28.8007 7.98147 28.5674C8.47241 28.3341 8.88315 28.0084 9.21126 27.5904C9.53936 27.1724 9.78483 26.6717 9.9501 26.0908C10.1129 25.51 10.1956 24.8756 10.1956 24.1878V13.2194C10.723 13.3579 11.2771 13.4673 11.8604 13.5475C12.4413 13.6277 13.0659 13.6666 13.7318 13.6666C14.3978 13.6666 15.0029 13.5791 15.455 13.4041C15.907 13.2315 16.2594 13.0177 16.5146 12.7625C16.7698 12.5097 16.9327 12.2302 17.008 11.9264C17.0834 11.6226 17.0979 11.3431 17.0518 11.0903C17.008 10.8376 16.9132 10.6237 16.7698 10.4487C16.6264 10.2762 16.4539 10.1887 16.2546 10.1887C16.1841 10.4973 16.0213 10.7744 15.7612 11.0247C15.5425 11.2337 15.2168 11.4233 14.7842 11.591C14.3516 11.7611 13.7561 11.8462 13.0003 11.8462C12.3343 11.8462 11.6392 11.7879 10.9198 11.6736C10.198 11.5594 9.48832 11.4355 8.78593 11.2994C8.08597 11.1657 7.41518 11.0417 6.77355 10.9275C6.13193 10.8133 5.56321 10.7549 5.06741 10.7549C4.4914 10.7549 3.90081 10.8011 3.29321 10.8886C2.68803 10.9785 2.1339 11.156 1.63081 11.4184C1.13014 11.6809 0.719401 12.0479 0.401018 12.5146C0.204154 12.8062 0.0729123 13.1611 0 13.5669H0.515247C0.563855 13.3944 0.622185 13.2267 0.70968 13.0736C0.904113 12.7309 1.16417 12.4417 1.49227 12.2083C1.82038 11.975 2.20438 11.7952 2.64186 11.6712C3.07933 11.5473 3.53625 11.4841 4.01504 11.4841C4.4039 11.4841 4.79763 11.5327 5.20108 11.625C5.60453 11.7198 6.02256 11.8413 6.45517 11.9896C6.88778 12.1378 7.33984 12.3007 7.81377 12.4757C8.28527 12.6507 8.78593 12.8159 9.31333 12.9763C9.19424 13.1854 9.08487 13.4138 8.98523 13.6641C8.88558 13.912 8.79809 14.1721 8.71788 14.4394C8.63768 14.7092 8.57692 14.979 8.53074 15.2536C8.48456 15.5283 8.46269 15.7835 8.46269 16.0216V24.9753C8.46269 25.2645 8.41165 25.5975 8.312 25.9742C8.21236 26.3533 8.05924 26.7082 7.85509 27.0411C7.65093 27.3741 7.38602 27.6585 7.06034 27.8918C6.73467 28.1251 6.34823 28.2417 5.90104 28.2417C5.45384 28.2417 5.099 28.1445 4.81221 27.9501C4.52299 27.7557 4.2994 27.5175 4.14142 27.2331C3.98101 26.9488 3.89352 26.6377 3.87164 26.2999C3.8522 25.962 3.89109 25.6509 3.99073 25.3666C4.09038 25.0822 4.25322 24.844 4.48168 24.6496C4.71014 24.4552 4.99449 24.358 5.33232 24.358C5.68959 24.358 5.94235 24.4454 6.08575 24.618C6.23157 24.793 6.31421 24.9899 6.34094 25.2086C6.36524 25.4273 6.35066 25.6388 6.29476 25.8429C6.23886 26.0471 6.18782 26.1735 6.13679 26.2245C6.49406 26.2245 6.78814 26.1419 7.01659 25.979C7.24505 25.8162 7.41032 25.6096 7.51483 25.3593C7.61934 25.1114 7.65579 24.8416 7.62663 24.5524C7.59746 24.2632 7.50511 23.9958 7.34956 23.7479C7.19644 23.5 6.97771 23.2934 6.69335 23.1282C6.41142 22.9653 6.0663 22.8827 5.658 22.8827C5.06254 22.8827 4.55459 23.0309 4.13656 23.3299C3.71853 23.6288 3.405 24.0007 3.19599 24.4503C2.98697 24.8975 2.8849 25.3812 2.88976 25.8964C2.89462 26.4141 3.01857 26.8953 3.26404 27.3425C3.50708 27.7897 3.8765 28.164 4.36745 28.4629C4.86082 28.7619 5.48544 28.9101 6.24129 28.9101" fill="white"/>
<path d="M16.9893 19.8884C16.9893 19.6599 16.9674 19.4193 16.9213 19.1641C16.8775 18.9089 16.7852 18.6756 16.6442 18.4642C16.5057 18.2503 16.3088 18.0729 16.0536 17.9344C15.8009 17.7958 15.4606 17.7253 15.0304 17.7253C14.6318 17.7253 14.3061 17.8177 14.0534 18.0024C13.7982 18.1871 13.6038 18.3888 13.4628 18.6076V15.4578C13.4628 15.3484 13.4968 15.239 13.5673 15.1297C13.6378 15.0203 13.7423 14.9498 13.8808 14.9206C13.961 14.9012 13.9999 14.8526 13.9999 14.7724V14.7432C13.9999 14.6436 13.9489 14.595 13.8492 14.595H11.3265C11.2268 14.595 11.1758 14.6436 11.1758 14.7432V14.7724C11.1758 14.8526 11.2147 14.9012 11.2949 14.9206C11.4334 14.9498 11.5403 15.0203 11.6157 15.1297C11.691 15.239 11.7275 15.3484 11.7275 15.4578V24.3239C11.7275 24.4333 11.691 24.5426 11.6157 24.652C11.5403 24.7614 11.4334 24.8319 11.2949 24.861C11.2147 24.8805 11.1758 24.9291 11.1758 25.0093V25.0384C11.1758 25.1381 11.2244 25.1891 11.3265 25.1891H13.8492C13.9489 25.1891 13.9999 25.1405 13.9999 25.0384V25.0093C13.9999 24.9291 13.961 24.8805 13.8808 24.861C13.7423 24.8319 13.6354 24.7614 13.5673 24.652C13.4968 24.5426 13.4628 24.4333 13.4628 24.3239V19.8908C13.4628 19.762 13.4774 19.6235 13.5065 19.4728C13.5357 19.3246 13.5916 19.186 13.6718 19.0621C13.752 18.9381 13.8565 18.8336 13.9853 18.7485C14.1141 18.6635 14.2794 18.6222 14.4787 18.6222C14.7558 18.6222 14.9551 18.7437 15.0742 18.9867C15.1932 19.2298 15.254 19.5311 15.254 19.8908V24.3385C15.254 24.4284 15.2151 24.5305 15.1349 24.6447C15.0547 24.7589 14.9453 24.8319 14.8068 24.861C14.7363 24.8805 14.7023 24.9291 14.7023 25.0093V25.0384C14.7023 25.1381 14.7509 25.1891 14.8506 25.1891H17.3733C17.473 25.1891 17.5216 25.1405 17.5216 25.0384V25.0093C17.5216 24.9291 17.4827 24.8805 17.4025 24.861C17.2737 24.8319 17.1765 24.7711 17.1108 24.6812C17.0452 24.5913 17.0039 24.4989 16.9845 24.3992V19.8933L16.9893 19.8884Z" fill="white"/>
<path d="M23.3878 21.3442C23.3878 21.1109 23.3635 20.8411 23.3124 20.5398C23.2614 20.2359 23.1836 19.92 23.0743 19.5919C22.9649 19.2638 22.8093 18.9624 22.6052 18.6878C22.401 18.4131 22.1434 18.1871 21.8299 18.0073C21.5164 17.8274 21.1299 17.7375 20.673 17.7375C20.2161 17.7375 19.8394 17.8347 19.487 18.0291C19.1346 18.2236 18.8332 18.4885 18.5829 18.8287C18.335 19.1666 18.1405 19.5627 18.002 20.0148C17.8635 20.4693 17.793 20.9529 17.793 21.4706C17.793 21.9883 17.8659 22.4744 18.0093 22.9264C18.1527 23.3785 18.3593 23.7722 18.629 24.1052C18.8964 24.4381 19.2196 24.7006 19.5988 24.895C19.9779 25.0895 20.3984 25.1867 20.8674 25.1867C21.266 25.1867 21.6136 25.1162 21.9125 24.9777C22.2115 24.8391 22.4594 24.6593 22.6587 24.4406C22.8579 24.2218 23.0062 23.9836 23.0986 23.7236C23.1933 23.466 23.2395 23.2156 23.2395 22.9775C23.2395 22.6882 23.152 22.4816 22.9795 22.3577C22.8045 22.2337 22.6319 22.1706 22.4642 22.1706C22.2552 22.1706 22.0729 22.2459 21.9198 22.3942C21.7643 22.5448 21.6889 22.7271 21.6889 22.9459C21.6889 23.1452 21.7327 23.2983 21.8153 23.4076C21.9004 23.517 21.9951 23.5948 22.0997 23.6385C22.2042 23.6823 22.3451 23.7114 22.525 23.7212C22.4764 23.8402 22.3962 23.9448 22.2868 24.0347C22.1969 24.1149 22.0754 24.1854 21.9222 24.2437C21.7667 24.302 21.5723 24.3336 21.3316 24.3336C20.8042 24.3336 20.3838 24.1076 20.0703 23.6555C19.7567 23.2035 19.5793 22.5886 19.5404 21.8133H23.361C23.3805 21.7331 23.3902 21.5775 23.3902 21.3442M19.5234 21.2616C19.5331 20.8436 19.572 20.4571 19.6352 20.0974C19.6984 19.7377 19.781 19.4266 19.8807 19.1568C19.9803 18.8871 20.097 18.6781 20.2307 18.5225C20.3643 18.3694 20.5126 18.2916 20.6706 18.2916C20.8601 18.2916 21.0157 18.384 21.1396 18.5687C21.2636 18.7534 21.3608 18.9891 21.4313 19.2784C21.5018 19.5676 21.5504 19.886 21.582 20.2335C21.6111 20.5811 21.6257 20.9238 21.6257 21.264H19.521L19.5234 21.2616Z" fill="white"/>
<path d="M222.584 56.2085C222.219 55.8075 221.806 55.4332 221.342 55.0881C220.878 54.7406 220.406 54.41 219.922 54.0916C219.439 53.7732 218.965 53.4646 218.503 53.1656C218.039 52.8643 217.626 52.5605 217.264 52.2494C216.899 51.9407 216.605 51.6199 216.381 51.2845C216.158 50.9515 216.043 50.5918 216.043 50.2078C216.043 49.8992 216.107 49.627 216.231 49.3936C216.355 49.1603 216.522 48.9659 216.731 48.8152C216.94 48.6645 217.181 48.5527 217.448 48.4774C217.718 48.402 217.995 48.3656 218.284 48.3656C218.644 48.3656 218.938 48.4239 219.174 48.5406C219.407 48.6572 219.585 48.8055 219.704 48.9853C219.823 49.1652 219.886 49.3572 219.891 49.5613C219.896 49.7655 219.854 49.9575 219.762 50.1398C219.672 50.3196 219.538 50.4679 219.359 50.5845C219.179 50.7012 218.96 50.7595 218.702 50.7595C218.423 50.7595 218.214 50.7134 218.075 50.621C217.937 50.5286 217.844 50.4266 217.798 50.3148C217.752 50.203 217.737 50.0936 217.752 49.9891C217.767 49.8846 217.789 49.819 217.82 49.7947C217.66 49.7266 217.502 49.7777 217.341 49.9453C217.183 50.113 217.103 50.3512 217.103 50.6599C217.103 50.8179 217.147 50.9831 217.23 51.1606C217.315 51.3355 217.439 51.4984 217.604 51.6491C217.769 51.7998 217.966 51.9237 218.202 52.0185C218.435 52.1157 218.707 52.1619 219.016 52.1619C219.325 52.1619 219.616 52.1181 219.891 52.0306C220.165 51.9431 220.406 51.8119 220.615 51.6369C220.824 51.4619 220.989 51.248 221.108 50.9929C221.228 50.7401 221.288 50.4509 221.288 50.1252C221.288 49.7825 221.213 49.4836 221.065 49.2259C220.916 48.9683 220.71 48.752 220.445 48.577C220.18 48.402 219.867 48.2684 219.504 48.176C219.14 48.0861 218.744 48.0375 218.316 48.0375C217.699 48.0375 217.191 48.1274 216.792 48.3073C216.393 48.4871 216.073 48.7083 215.834 48.9756C215.596 49.243 215.429 49.5273 215.334 49.8263C215.239 50.1276 215.19 50.4023 215.19 50.6526C215.19 51.1533 215.351 51.6126 215.669 52.0282C215.988 52.4462 216.384 52.857 216.858 53.2604C217.332 53.6663 217.844 54.0698 218.406 54.4732C218.962 54.8791 219.478 55.3166 219.952 55.7881C220.426 56.2596 220.822 56.7772 221.14 57.3387C221.461 57.9025 221.619 58.5344 221.619 59.2344C221.619 59.8177 221.514 60.3524 221.305 60.836C221.096 61.3197 220.805 61.7353 220.43 62.0828C220.056 62.4279 219.614 62.6977 219.101 62.8897C218.588 63.0817 218.027 63.1789 217.419 63.1789C216.612 63.1789 215.941 63.0185 215.409 62.6977C214.877 62.3769 214.476 61.9759 214.206 61.4947C213.936 61.0159 213.791 60.4933 213.766 59.9295C213.742 59.3656 213.839 58.8431 214.058 58.3643C214.277 57.8855 214.612 57.4845 215.059 57.1612C215.506 56.8404 216.065 56.68 216.731 56.68C217.142 56.68 217.477 56.7602 217.74 56.9255C218.005 57.0883 218.199 57.29 218.323 57.5331C218.447 57.7761 218.503 58.0386 218.486 58.323C218.471 58.6073 218.389 58.8698 218.241 59.1129C218.092 59.3559 217.878 59.5576 217.604 59.7205C217.329 59.8833 216.999 59.9635 216.61 59.9635C216.221 59.9635 215.915 59.8833 215.72 59.7205C215.526 59.5576 215.429 59.368 215.429 59.1493C215.339 59.1493 215.256 59.2076 215.183 59.3243C215.108 59.441 215.064 59.5844 215.049 59.7569C215.032 59.9295 215.054 60.1142 215.11 60.3135C215.164 60.5152 215.273 60.6999 215.438 60.8725C215.601 61.0426 215.83 61.1884 216.119 61.3051C216.408 61.4217 216.775 61.4801 217.225 61.4801C217.832 61.4801 218.345 61.3513 218.763 61.0936C219.181 60.836 219.497 60.5103 219.711 60.119C219.925 59.7278 220.029 59.3049 220.025 58.8504C220.02 58.3959 219.898 57.9754 219.66 57.5817C219.422 57.1904 219.057 56.8647 218.569 56.6071C218.08 56.3495 217.458 56.2207 216.702 56.2207C215.946 56.2207 215.285 56.3325 214.721 56.5512C214.16 56.7724 213.696 57.0665 213.331 57.4334C212.967 57.8004 212.699 58.216 212.524 58.6851C212.349 59.1517 212.276 59.6281 212.308 60.1118C212.337 60.5954 212.471 61.0693 212.704 61.5384C212.937 62.005 213.273 62.4231 213.705 62.7901C214.138 63.1571 214.67 63.4487 215.305 63.6723C215.937 63.8935 216.678 64.0028 217.524 64.0028C218.211 64.0028 218.924 63.9032 219.66 63.7088C220.396 63.5119 221.072 63.213 221.684 62.8144C222.297 62.4134 222.802 61.9054 223.201 61.2856C223.6 60.6683 223.799 59.9368 223.799 59.0934C223.799 58.5247 223.687 58.0046 223.461 57.5282C223.238 57.0519 222.943 56.6144 222.581 56.2109" fill="white"/>
<path d="M228.278 52.8952C228.176 52.589 228.031 52.307 227.839 52.0518C227.649 51.7967 227.406 51.5852 227.112 51.4175C226.818 51.2498 226.458 51.1672 226.03 51.1672C225.603 51.1672 225.253 51.2571 224.922 51.4394C224.592 51.6217 224.31 51.8696 224.079 52.1855C223.845 52.5015 223.666 52.8709 223.534 53.2938C223.403 53.7167 223.34 54.1712 223.34 54.6548C223.34 55.1385 223.408 55.593 223.542 56.0158C223.675 56.4387 223.87 56.8057 224.12 57.1168C224.37 57.4279 224.674 57.6758 225.027 57.8581C225.379 58.0379 225.775 58.1303 226.213 58.1303C226.584 58.1303 226.91 58.0647 227.19 57.9359C227.469 57.8046 227.7 57.6369 227.887 57.4328C228.074 57.2286 228.21 57.005 228.3 56.762C228.388 56.5189 228.432 56.288 228.432 56.0645C228.432 55.7947 228.351 55.6027 228.189 55.486C228.026 55.3694 227.865 55.311 227.707 55.311C227.513 55.311 227.343 55.3815 227.197 55.52C227.054 55.6586 226.981 55.8311 226.981 56.0377C226.981 56.2224 227.019 56.3683 227.1 56.4703C227.177 56.5724 227.267 56.6453 227.365 56.6866C227.462 56.728 227.593 56.7547 227.761 56.762C227.715 56.8738 227.639 56.971 227.537 57.0536C227.455 57.129 227.34 57.1946 227.194 57.2505C227.051 57.3064 226.866 57.3331 226.643 57.3331C226.149 57.3331 225.756 57.1217 225.464 56.6988C225.172 56.2759 225.005 55.6999 224.968 54.9756H228.541C228.56 54.9003 228.568 54.7545 228.568 54.5357C228.568 54.317 228.543 54.0667 228.5 53.7823C228.453 53.4979 228.378 53.2014 228.276 52.8952M224.958 54.458C224.968 54.0667 225.002 53.7045 225.063 53.3691C225.124 53.0337 225.199 52.7421 225.294 52.4893C225.386 52.239 225.496 52.0397 225.622 51.8963C225.746 51.7529 225.884 51.68 226.033 51.68C226.21 51.68 226.356 51.7651 226.473 51.9376C226.589 52.1102 226.679 52.3313 226.745 52.6011C226.81 52.8709 226.854 53.1674 226.883 53.4931C226.913 53.8188 226.925 54.1396 226.925 54.4555H224.958V54.458Z" fill="white"/>
<path d="M233.113 54.2489C232.868 54.1007 232.598 53.9816 232.311 53.8941C232.022 53.8066 231.754 53.7118 231.509 53.6146C231.261 53.5174 231.055 53.3983 230.887 53.2598C230.719 53.1188 230.636 52.9244 230.636 52.674C230.636 52.4043 230.743 52.1734 230.957 51.9765C231.171 51.7821 231.485 51.6849 231.893 51.6849C232.173 51.6849 232.394 51.7262 232.564 51.8112C232.732 51.8939 232.865 52.0154 232.967 52.1734C232.894 52.1539 232.836 52.1442 232.8 52.1442C232.595 52.1442 232.423 52.2171 232.282 52.3605C232.143 52.5039 232.073 52.6789 232.073 52.883C232.073 53.0872 232.143 53.25 232.282 53.3934C232.423 53.5368 232.595 53.6097 232.8 53.6097C233.004 53.6097 233.176 53.5393 233.317 53.3934C233.456 53.25 233.526 53.0799 233.526 52.883C233.526 52.3994 233.371 51.9935 233.06 51.663C232.749 51.3324 232.258 51.1672 231.587 51.1672C231.225 51.1672 230.897 51.2206 230.602 51.3276C230.311 51.4345 230.063 51.5779 229.861 51.7602C229.662 51.94 229.509 52.1539 229.402 52.4018C229.295 52.6473 229.241 52.9146 229.241 53.2014C229.241 53.6195 229.322 53.9549 229.484 54.2052C229.647 54.4555 229.849 54.6597 230.09 54.8177C230.333 54.9756 230.593 55.102 230.872 55.2017C231.152 55.2989 231.412 55.3961 231.655 55.4933C231.895 55.5905 232.1 55.7072 232.262 55.8433C232.425 55.977 232.508 56.1617 232.508 56.3926C232.508 56.5214 232.474 56.6526 232.408 56.7814C232.345 56.9127 232.248 57.0293 232.124 57.1363C231.998 57.2432 231.842 57.3307 231.657 57.4012C231.473 57.4717 231.251 57.5057 231.001 57.5057C230.6 57.5057 230.299 57.4328 230.095 57.287C229.89 57.1411 229.742 56.971 229.647 56.779C229.759 56.8252 229.866 56.8495 229.968 56.8495C230.175 56.8495 230.347 56.779 230.486 56.6405C230.627 56.5019 230.695 56.3294 230.695 56.1228C230.695 55.9162 230.624 55.7461 230.486 55.6075C230.347 55.4666 230.175 55.3985 229.968 55.3985C229.745 55.3985 229.555 55.4909 229.397 55.678C229.266 55.8093 229.188 56.011 229.159 56.2856C229.132 56.5603 229.188 56.8349 229.334 57.1095C229.477 57.3842 229.723 57.6223 230.065 57.8289C230.408 58.0331 230.884 58.1352 231.487 58.1352C231.813 58.1352 232.126 58.0793 232.428 57.9675C232.729 57.8557 232.996 57.7001 233.222 57.5008C233.451 57.3015 233.636 57.0609 233.774 56.7814C233.913 56.5044 233.983 56.1957 233.983 55.8603C233.983 55.4423 233.901 55.1069 233.73 54.8565C233.565 54.6038 233.356 54.4045 233.111 54.2562" fill="white"/>
<path d="M238.334 54.2489C238.086 54.1007 237.821 53.9816 237.532 53.8941C237.243 53.8066 236.975 53.7118 236.73 53.6146C236.482 53.5174 236.275 53.3983 236.108 53.2598C235.94 53.1188 235.857 52.9244 235.857 52.674C235.857 52.4043 235.964 52.1734 236.178 51.9765C236.392 51.7821 236.703 51.6849 237.114 51.6849C237.391 51.6849 237.615 51.7262 237.782 51.8112C237.95 51.8939 238.084 52.0154 238.186 52.1734C238.113 52.1539 238.057 52.1442 238.02 52.1442C237.816 52.1442 237.644 52.2171 237.503 52.3605C237.364 52.5039 237.294 52.6789 237.294 52.883C237.294 53.0872 237.364 53.25 237.503 53.3934C237.641 53.5368 237.814 53.6097 238.02 53.6097C238.227 53.6097 238.397 53.5393 238.538 53.3934C238.677 53.25 238.747 53.0799 238.747 52.883C238.747 52.3994 238.592 51.9935 238.28 51.663C237.969 51.3324 237.478 51.1672 236.81 51.1672C236.448 51.1672 236.12 51.2206 235.826 51.3276C235.532 51.4345 235.286 51.5779 235.087 51.7602C234.888 51.94 234.732 52.1539 234.628 52.4018C234.521 52.6473 234.467 52.9146 234.467 53.2014C234.467 53.6195 234.547 53.9549 234.713 54.2052C234.875 54.4555 235.077 54.6597 235.318 54.8177C235.561 54.9756 235.821 55.102 236.1 55.2017C236.38 55.2989 236.64 55.3961 236.883 55.4933C237.126 55.5905 237.325 55.7072 237.491 55.8433C237.651 55.977 237.734 56.1617 237.734 56.3926C237.734 56.5214 237.702 56.6526 237.636 56.7814C237.571 56.9127 237.476 57.0293 237.35 57.1363C237.223 57.2432 237.068 57.3307 236.883 57.4012C236.698 57.4717 236.48 57.5057 236.227 57.5057C235.826 57.5057 235.522 57.4328 235.318 57.287C235.114 57.1411 234.965 56.971 234.871 56.779C234.982 56.8252 235.089 56.8495 235.191 56.8495C235.396 56.8495 235.571 56.779 235.709 56.6405C235.848 56.5019 235.918 56.3294 235.918 56.1228C235.918 55.9162 235.848 55.7461 235.709 55.6075C235.571 55.4666 235.398 55.3985 235.191 55.3985C234.968 55.3985 234.778 55.4909 234.62 55.678C234.489 55.8093 234.411 56.011 234.382 56.2856C234.353 56.5603 234.414 56.8349 234.557 57.1095C234.701 57.3842 234.946 57.6223 235.289 57.8289C235.634 58.0331 236.108 58.1352 236.71 58.1352C237.036 58.1352 237.352 58.0793 237.653 57.9675C237.955 57.8557 238.222 57.7001 238.448 57.5008C238.674 57.3015 238.859 57.0609 239 56.7814C239.138 56.5044 239.209 56.1957 239.209 55.8603C239.209 55.4423 239.126 55.1069 238.959 54.8565C238.791 54.6038 238.584 54.4045 238.336 54.2562" fill="white"/>
<path d="M241.384 50.3555C241.542 50.1975 241.623 50.0055 241.623 49.7819C241.623 49.5583 241.542 49.3688 241.384 49.2108C241.226 49.0528 241.034 48.975 240.813 48.975C240.592 48.975 240.398 49.0528 240.242 49.2108C240.084 49.3688 240.004 49.5608 240.004 49.7819C240.004 50.0031 240.084 50.1975 240.242 50.3555C240.4 50.5135 240.59 50.5937 240.813 50.5937C241.037 50.5937 241.226 50.5159 241.384 50.3555Z" fill="white"/>
<path d="M241.992 51.1646H239.635C239.542 51.1646 239.496 51.2107 239.496 51.3055V51.3322C239.496 51.4076 239.533 51.4538 239.608 51.4708C239.739 51.4902 239.836 51.551 239.902 51.6579C239.968 51.7649 239.999 51.8694 239.999 51.9714V57.3159C239.999 57.418 239.965 57.5225 239.902 57.6294C239.836 57.7364 239.739 57.7996 239.608 57.819C239.533 57.836 239.496 57.8846 239.496 57.9575V57.9867C239.496 58.0791 239.542 58.1252 239.635 58.1252H241.992C242.084 58.1252 242.133 58.0791 242.133 57.9867V57.9575C242.133 57.8822 242.097 57.836 242.021 57.819C241.892 57.7996 241.793 57.7364 241.722 57.6294C241.652 57.5225 241.618 57.418 241.618 57.3159V51.9714C241.618 51.8694 241.652 51.7649 241.722 51.6579C241.793 51.551 241.892 51.4878 242.021 51.4708C242.097 51.4513 242.133 51.4052 242.133 51.3322V51.3055C242.133 51.2132 242.087 51.1646 241.992 51.1646Z" fill="white"/>
<path d="M246.777 52.1712C246.541 51.8552 246.274 51.6073 245.965 51.425C245.656 51.2428 245.326 51.1528 244.973 51.1528C244.621 51.1528 244.285 51.2428 243.972 51.425C243.661 51.6073 243.391 51.8552 243.163 52.1712C242.934 52.4871 242.749 52.8565 242.616 53.2794C242.482 53.7023 242.414 54.1568 242.414 54.6405C242.414 55.1241 242.482 55.5762 242.616 55.9991C242.749 56.422 242.932 56.7938 243.163 57.1073C243.391 57.4233 243.661 57.6736 243.972 57.8535C244.285 58.0333 244.618 58.1257 244.973 58.1257C245.328 58.1257 245.659 58.0358 245.965 57.8535C246.274 57.6712 246.543 57.4233 246.777 57.1073C247.01 56.7914 247.19 56.422 247.323 55.9991C247.455 55.5762 247.518 55.1217 247.518 54.6405C247.518 54.1593 247.452 53.7023 247.323 53.2794C247.192 52.8565 247.01 52.4871 246.777 52.1712ZM245.822 55.7949C245.77 56.1546 245.702 56.4706 245.62 56.7428C245.535 57.0126 245.437 57.2264 245.326 57.3795C245.214 57.5351 245.092 57.6129 244.964 57.6129C244.835 57.6129 244.711 57.5351 244.601 57.3795C244.49 57.2264 244.392 57.0126 244.31 56.7428C244.227 56.473 244.157 56.157 244.108 55.7949C244.057 55.4352 244.03 55.0488 244.03 54.638C244.03 54.2273 244.055 53.8409 244.108 53.4812C244.159 53.1215 244.227 52.8055 244.31 52.5333C244.392 52.2635 244.49 52.0497 244.601 51.8965C244.713 51.7434 244.835 51.6656 244.964 51.6656C245.092 51.6656 245.214 51.741 245.326 51.8965C245.437 52.0521 245.535 52.2635 245.62 52.5333C245.702 52.8055 245.77 53.119 245.822 53.4812C245.873 53.8409 245.899 54.2273 245.899 54.638C245.899 55.0488 245.873 55.4328 245.822 55.7949Z" fill="white"/>
<path d="M253.482 57.822C253.351 57.7952 253.252 57.7296 253.181 57.6251C253.111 57.523 253.077 57.421 253.077 57.3189V53.175C253.077 52.9612 253.057 52.7351 253.016 52.4969C252.972 52.2612 252.889 52.0425 252.765 51.8407C252.639 51.639 252.459 51.4762 252.221 51.3449C251.983 51.2137 251.665 51.1505 251.263 51.1505C250.892 51.1505 250.588 51.2356 250.35 51.4081C250.111 51.5807 249.924 51.7678 249.783 51.972V51.1481H247.803C247.71 51.1481 247.664 51.1943 247.664 51.2866V51.3133C247.664 51.3887 247.701 51.4349 247.773 51.4543C247.905 51.4835 248.002 51.5467 248.068 51.6487C248.133 51.7508 248.165 51.8529 248.165 51.955V57.3116C248.165 57.4137 248.131 57.5157 248.068 57.6178C248.002 57.7199 247.905 57.7855 247.773 57.8147C247.701 57.8341 247.664 57.8803 247.664 57.9532V57.98C247.664 58.0723 247.71 58.1185 247.803 58.1185H250.16C250.252 58.1185 250.299 58.0723 250.299 57.98V57.9532C250.299 57.8779 250.262 57.8317 250.187 57.8147C250.056 57.788 249.956 57.7223 249.888 57.6178C249.817 57.5157 249.783 57.4137 249.783 57.3116V53.1677C249.783 53.0462 249.8 52.9174 249.832 52.7764C249.864 52.6355 249.917 52.5091 249.992 52.3924C250.068 52.2758 250.165 52.1786 250.286 52.1008C250.408 52.023 250.561 51.9817 250.746 51.9817C251.006 51.9817 251.191 52.0959 251.298 52.3244C251.404 52.5528 251.458 52.8323 251.458 53.1677V57.3116C251.458 57.4137 251.426 57.5157 251.361 57.6178C251.295 57.7199 251.198 57.7855 251.069 57.8147C250.996 57.8341 250.957 57.8803 250.957 57.9532V57.98C250.957 58.0723 251.003 58.1185 251.098 58.1185H253.456C253.548 58.1185 253.594 58.0723 253.594 57.98V57.9532C253.594 57.8779 253.558 57.8317 253.482 57.8147" fill="white"/>
<path d="M257.808 54.2489C257.563 54.1007 257.293 53.9816 257.006 53.8941C256.717 53.8066 256.452 53.7118 256.204 53.6146C255.959 53.5174 255.752 53.3983 255.584 53.2598C255.417 53.1188 255.334 52.9244 255.334 52.674C255.334 52.4043 255.441 52.1734 255.655 51.9765C255.869 51.7821 256.18 51.6849 256.591 51.6849C256.868 51.6849 257.091 51.7262 257.259 51.8112C257.427 51.8939 257.56 52.0154 257.662 52.1734C257.59 52.1539 257.534 52.1442 257.497 52.1442C257.291 52.1442 257.12 52.2171 256.979 52.3605C256.841 52.5039 256.77 52.6789 256.77 52.883C256.77 53.0872 256.841 53.25 256.979 53.3934C257.118 53.5368 257.291 53.6097 257.497 53.6097C257.704 53.6097 257.874 53.5393 258.012 53.3934C258.151 53.25 258.221 53.0799 258.221 52.883C258.221 52.3994 258.066 51.9935 257.755 51.663C257.444 51.3324 256.953 51.1672 256.282 51.1672C255.92 51.1672 255.592 51.2206 255.298 51.3276C255.006 51.4345 254.758 51.5779 254.559 51.7602C254.357 51.94 254.204 52.1539 254.099 52.4018C253.992 52.6473 253.939 52.9146 253.939 53.2014C253.939 53.6195 254.019 53.9549 254.182 54.2052C254.345 54.4555 254.547 54.6597 254.79 54.8177C255.033 54.9756 255.293 55.102 255.572 55.2017C255.849 55.2989 256.112 55.3961 256.352 55.4933C256.595 55.5905 256.797 55.7072 256.96 55.8433C257.12 55.977 257.203 56.1617 257.203 56.3926C257.203 56.5214 257.171 56.6526 257.106 56.7814C257.04 56.9127 256.945 57.0293 256.819 57.1363C256.695 57.2432 256.537 57.3307 256.352 57.4012C256.168 57.4717 255.949 57.5057 255.696 57.5057C255.298 57.5057 254.994 57.4328 254.79 57.287C254.586 57.1411 254.435 56.971 254.342 56.779C254.454 56.8252 254.561 56.8495 254.663 56.8495C254.867 56.8495 255.04 56.779 255.181 56.6405C255.319 56.5019 255.39 56.3294 255.39 56.1228C255.39 55.9162 255.319 55.7461 255.181 55.6075C255.042 55.4666 254.87 55.3985 254.663 55.3985C254.44 55.3985 254.25 55.4909 254.092 55.678C253.961 55.8093 253.883 56.011 253.854 56.2856C253.827 56.5603 253.886 56.8349 254.029 57.1095C254.172 57.3842 254.418 57.6223 254.76 57.8289C255.106 58.0331 255.58 58.1352 256.185 58.1352C256.51 58.1352 256.824 58.0793 257.128 57.9675C257.429 57.8557 257.696 57.7001 257.922 57.5008C258.148 57.3015 258.333 57.0609 258.474 56.7814C258.613 56.5044 258.683 56.1957 258.683 55.8603C258.683 55.4423 258.601 55.1069 258.433 54.8565C258.265 54.6038 258.059 54.4045 257.811 54.2562" fill="white"/>
</g>
<defs>
<clipPath id="clip0_1096_2576">
<rect width="282.462" height="64" fill="white"/>
</clipPath>
</defs>
</svg>
