<svg width="92" height="90" viewBox="0 0 92 90" fill="none" xmlns="http://www.w3.org/2000/svg">
<g clip-path="url(#clip0_1061_23846)">
<path d="M81.6686 19.7618C81.7228 19.7618 81.768 19.7618 81.8222 19.7618C81.8764 19.7618 81.9215 19.7618 81.9757 19.7618C84.8211 19.7618 86.998 19.2644 88.5246 18.2695C90.0511 17.2746 90.8099 15.8637 90.8099 14.0368C90.8099 12.4178 90.286 11.1516 89.2291 10.2472C88.1723 9.34276 86.5012 8.70965 84.2069 8.37502L80.395 7.79618C79.04 7.58816 78.1006 7.29874 77.5677 6.93697C77.0347 6.5752 76.7638 6.04158 76.7638 5.34517C76.7638 4.59449 77.1883 4.00661 78.0374 3.60866C78.8594 3.21975 80.0156 3.02078 81.497 3.01174C82.8248 3.02982 83.8726 3.2288 84.6043 3.62675C85.3631 4.04279 85.9412 4.73016 86.3296 5.6979L86.5644 5.67076L90.3402 5.22759C89.8976 3.41873 88.9853 2.09826 87.6032 1.26618C86.2122 0.434105 84.2611 0.0180664 81.7319 0.0180664C81.6777 0.0180664 81.6325 0.0180664 81.5873 0.0180664C81.5331 0.0180664 81.488 0.0180664 81.4338 0.0180664C78.6787 0.0180664 76.5199 0.497415 74.9481 1.45611C73.3764 2.41481 72.5906 3.75337 72.5906 5.47179C72.5906 7.09072 73.1506 8.33884 74.2707 9.22518C75.3908 10.1115 77.2335 10.7537 79.7988 11.1335L83.0868 11.631C84.3333 11.8028 85.2276 12.0922 85.7876 12.4902C86.3386 12.8881 86.6186 13.4308 86.6186 14.1362C86.6186 14.9774 86.1941 15.6286 85.354 16.0898C84.5411 16.533 83.3578 16.7501 81.8222 16.7681C80.1963 16.7501 78.9226 16.4968 78.0193 15.9813C77.0889 15.4567 76.5199 14.6427 76.3121 13.5574H72.0938C72.5364 17.6997 75.725 19.7799 81.6686 19.7799V19.7618Z" fill="#151515"/>
<path d="M43.8555 35.5984V54.4106H44.1536H47.7486H48.0467V35.5984H47.7486H44.1536H43.8555Z" fill="#151515"/>
<path d="M79.3454 54.4106H83.5186H83.8167L92.0005 35.5984H91.7024H87.7641H87.466L81.5133 50.3497L75.5335 35.5984H75.2354H71.1887H70.8906L79.0473 54.4106H79.3454Z" fill="#151515"/>
<path d="M7.3463 19.2825H7.64439V11.6943H17.707H18.0141V8.565H17.707H7.64439V3.60871H18.2942H18.5923V0.470337H18.2942H3.75121H3.45312V19.2825H3.75121H7.3463Z" fill="#151515"/>
<path d="M54.6132 19.2825L55.0829 16.2255H54.7848H42.7711V11.1698H53.6286H53.9267V8.11278H53.6286H42.7711V3.52732H54.2067H54.5048V0.470337H54.2067H38.9231H38.625V19.2825H38.9231H54.3061H54.6132Z" fill="#151515"/>
<path d="M8.93529 38.8634V54.4106H9.23338H12.8285H13.1266V38.8634H20.2535H20.5516V35.5984H20.2535H1.79027H1.49219V38.8634H1.79027H8.93529Z" fill="#151515"/>
<path d="M13.0254 70.7175H8.68061L0 89.5297H4.32676L6.27786 85.0799H15.5817L17.578 89.5297H22.0312L13.3235 70.7175H13.0254ZM7.56053 82.0501L10.9659 74.3805L14.3442 82.0501H7.56956H7.56053Z" fill="#151515"/>
<path d="M44.035 86.2647V70.7175H43.7369H40.1418H39.8438V89.5297H40.1418H54.8745H55.1726L55.6694 86.2647H55.3713H44.035Z" fill="#151515"/>
<path d="M84.2069 78.6222L80.395 78.0434C79.04 77.8354 78.1006 77.5459 77.5677 77.1842C77.0347 76.8224 76.7638 76.2888 76.7638 75.5924C76.7638 74.8417 77.1883 74.2538 78.0374 73.8559C78.8594 73.4669 80.0156 73.268 81.497 73.2589C82.8248 73.277 83.8726 73.476 84.6043 73.8739C85.3631 74.29 85.9412 74.9773 86.3296 75.9451L86.5644 75.918L90.3402 75.4748C89.8976 73.6659 88.9853 72.3454 87.6032 71.5134C86.2122 70.6813 84.2611 70.2653 81.7319 70.2653C81.6777 70.2653 81.6325 70.2653 81.5873 70.2653C81.5331 70.2653 81.488 70.2653 81.4338 70.2653C78.6787 70.2653 76.5199 70.7446 74.9481 71.7033C73.3764 72.662 72.5906 74.0006 72.5906 75.719C72.5906 77.3379 73.1506 78.586 74.2707 79.4724C75.3908 80.3587 77.2335 81.0009 79.7988 81.3807L83.0868 81.8782C84.3333 82.05 85.2276 82.3394 85.7876 82.7374C86.3386 83.1353 86.6186 83.678 86.6186 84.3834C86.6186 85.2246 86.1941 85.8757 85.354 86.337C84.5411 86.7802 83.3578 86.9972 81.8222 87.0153C80.1963 86.9972 78.9226 86.744 78.0193 86.2285C77.0889 85.7039 76.5199 84.8899 76.3121 83.8046H72.0938C72.5364 87.9469 75.725 90.0271 81.6686 90.0271C81.7228 90.0271 81.768 90.0271 81.8222 90.0271C81.8764 90.0271 81.9215 90.0271 81.9757 90.0271C84.8211 90.0271 86.998 89.5297 88.5246 88.5348C90.0511 87.5399 90.8099 86.129 90.8099 84.302C90.8099 82.6831 90.286 81.4169 89.2291 80.5125C88.1723 79.608 86.5012 78.9749 84.2069 78.6403V78.6222Z" fill="#151515"/>
</g>
<defs>
<clipPath id="clip0_1061_23846">
<rect width="92" height="90" fill="white"/>
</clipPath>
</defs>
</svg>
