<svg width="73" height="80" viewBox="0 0 73 80" fill="none" xmlns="http://www.w3.org/2000/svg">
<g clip-path="url(#clip0_1061_22537)">
<path d="M23.3779 12.1079C18.3467 12.1079 14.2578 16.2284 14.2578 21.2859C14.2578 26.3434 18.3523 30.4639 23.3779 30.4639C28.4035 30.4639 32.498 26.3434 32.498 21.2859C32.498 16.2284 28.4035 12.1079 23.3779 12.1079ZM29.2953 21.2859C29.2953 24.571 26.6423 27.2409 23.3779 27.2409C20.1135 27.2409 17.4605 24.571 17.4605 21.2859C17.4605 18.0008 20.1135 15.3309 23.3779 15.3309C26.6423 15.3309 29.2953 18.0008 29.2953 21.2859Z" fill="#F8F2EB"/>
<path d="M6.60156 57.3033H40.0195V54.0746H14.3363L36.9794 31.2877C38.9874 29.2951 40.0082 26.6761 40.0139 23.5095V0H36.8056V11.4358C33.6702 7.11211 28.6726 4.54385 23.3722 4.54385C14.196 4.54385 6.73057 12.0567 6.73057 21.2912C6.73057 30.5256 14.196 38.0385 23.3722 38.0385C24.2023 38.0385 25.0549 37.9651 25.9635 37.8184L6.76983 57.134L6.60156 57.3033ZM36.8112 21.2855C36.8112 28.742 30.7872 34.8042 23.3778 34.8042C15.9684 34.8042 9.94447 28.742 9.94447 21.2855C9.94447 13.8291 15.9684 7.76688 23.3778 7.76688C30.7872 7.76688 36.8112 13.8291 36.8112 21.2855Z" fill="#F8F2EB"/>
<path d="M64.2509 49.7396V46.511H55.0523V21.1839H51.844V46.511H47.5307V0H44.3224V25.3835C44.3168 28.4428 43.3408 30.9829 41.4338 32.9246L27.9388 46.5053L24.7305 49.734H44.328V57.2977H47.5363V49.734H51.8496V80H55.0579V49.734H64.2565L64.2509 49.7396ZM44.3336 34.5897V46.511H32.4876L44.3336 34.5897Z" fill="#F8F2EB"/>
<path d="M9.12009 61.6438C4.0889 61.6438 0 65.7643 0 70.8218C0 75.8793 4.09451 79.9998 9.12009 79.9998C14.1457 79.9998 18.2402 75.8793 18.2402 70.8218C18.2402 65.7643 14.1457 61.6438 9.12009 61.6438ZM15.0375 70.8218C15.0375 74.1069 12.3845 76.7768 9.12009 76.7768C5.8557 76.7768 3.20269 74.1069 3.20269 70.8218C3.20269 67.5367 5.8557 64.8668 9.12009 64.8668C12.3845 64.8668 15.0375 67.5367 15.0375 70.8218Z" fill="#F8F2EB"/>
<path d="M39.918 75.0383L35.515 61.7398L35.4814 61.6438H32.3235L32.2955 61.7398L27.8925 75.0383L23.4558 61.6438H20.2363L26.2827 79.9039L26.3108 79.9998H29.4686L29.5022 79.9039L33.9052 66.6053L38.3082 79.9039L38.3419 79.9998H41.4941L41.5278 79.9039L47.5293 61.7736L47.5742 61.6438H44.3547L39.918 75.0383Z" fill="#F8F2EB"/>
<path d="M59.3298 74.1977H62.5101C62.7344 75.9983 63.4524 77.4998 66.4644 77.4998C68.4275 77.4998 69.8185 76.3991 69.8185 74.7509C69.8185 73.1027 68.9996 72.4761 66.1166 72.002C61.8651 71.4262 59.8515 70.128 59.8515 66.7751C59.8515 63.8513 62.3362 61.6499 66.0381 61.6499C69.74 61.6499 72.1518 63.3997 72.4996 66.8259H69.4651C69.1398 64.952 68.0741 64.1504 66.0325 64.1504C63.9908 64.1504 62.9756 65.1269 62.9756 66.5042C62.9756 67.9548 63.5702 68.683 66.6551 69.1289C70.8281 69.7047 72.9931 70.9069 72.9931 74.4799C72.9931 77.5788 70.385 80.0059 66.4588 80.0059C61.6127 80.0059 59.5766 77.5788 59.3242 74.2034L59.3298 74.1977Z" fill="#F8F2EB"/>
</g>
<defs>
<clipPath id="clip0_1061_22537">
<rect width="73" height="80" fill="white"/>
</clipPath>
</defs>
</svg>
